<?xml version="1.0" encoding="UTF-8" standalone="no"?>
<svg
   xmlns:dc="http://purl.org/dc/elements/1.1/"
   xmlns:cc="http://creativecommons.org/ns#"
   xmlns:rdf="http://www.w3.org/1999/02/22-rdf-syntax-ns#"
   xmlns:svg="http://www.w3.org/2000/svg"
   xmlns="http://www.w3.org/2000/svg"
   xmlns:sodipodi="http://sodipodi.sourceforge.net/DTD/sodipodi-0.dtd"
   xmlns:inkscape="http://www.inkscape.org/namespaces/inkscape"
   id="Calque_2"
   data-name="Calque 2"
   viewBox="0 0 60.000002 59.999999"
   version="1.1"
   sodipodi:docname="logo_min (copie 1).svg"
   width="60"
   height="60"
   inkscape:version="0.92.4 (5da689c313, 2019-01-14)">
  <metadata
     id="metadata101">
    <rdf:RDF>
      <cc:Work
         rdf:about="">
        <dc:format>image/svg+xml</dc:format>
        <dc:type
           rdf:resource="http://purl.org/dc/dcmitype/StillImage" />
        <dc:title>Gym_2</dc:title>
      </cc:Work>
    </rdf:RDF>
  </metadata>
  <sodipodi:namedview
     pagecolor="#ffffff"
     bordercolor="#666666"
     borderopacity="1"
     objecttolerance="10"
     gridtolerance="10"
     guidetolerance="10"
     inkscape:pageopacity="0"
     inkscape:pageshadow="2"
     inkscape:window-width="1280"
     inkscape:window-height="751"
     id="namedview99"
     showgrid="false"
     fit-margin-top="0"
     fit-margin-left="0"
     fit-margin-right="0"
     fit-margin-bottom="0"
     inkscape:zoom="0.40401273"
     inkscape:cx="-157.96633"
     inkscape:cy="282.17997"
     inkscape:window-x="0"
     inkscape:window-y="25"
     inkscape:window-maximized="1"
     inkscape:current-layer="Calque_2" />
  <defs
     id="defs4">
    <style
       id="style2">.cls-1{fill:#c8c5c3;}.cls-2{fill:#c2a89f;}.cls-3{fill:#c2bec2;}.cls-4{fill:none;}.cls-5{fill:#314b40;}.cls-6{fill:#b49a8d;}.cls-7{fill:#976b64;}.cls-8{fill:#7b7985;}</style>
  </defs>
  <title
     id="title6">Gym_2</title>
  <path
     class="cls-1"
     d="m 31.921629,22.216065 c -0.07601,0.6759 -0.124293,1.35694 -0.233177,2.02771 -0.157163,0.97379 -0.224959,1.94451 0.0113,2.91008 0.241395,0.98099 0.860802,1.73599 1.578822,2.4047 a 1.3939238,1.3939238 0 0 0 0.710829,0.30816 c 0.956332,0.1469 1.99176,0.32666 2.773467,-0.35027 0.519768,-0.453 0.87621,-1.15972 1.145339,-1.81817 0.533121,-1.30352 0.954277,-2.65328 1.425766,-3.98352 a 1.2644953,1.2644953 0 0 1 0.133537,-0.25577 c 0.494088,-0.76938 0.96455,-1.55622 1.495618,-2.29992 a 6.2598186,6.2598169 0 0 1 1.049808,-1.09398 c 0.117102,-0.10272 0.449918,-0.0873 0.581401,0.0103 0.205442,0.15305 0.107857,0.35952 -0.07807,0.55264 -0.458136,0.47354 -0.930652,0.94709 -1.303529,1.48637 a 3.1453165,3.1453166 0 0 0 -0.513605,1.29223 c -0.164354,1.14123 -0.263993,2.29376 -0.345143,3.44526 a 6.1468255,6.1468238 0 0 0 0.534149,2.85565 c 0.235232,0.54134 0.84334,0.93168 1.314829,1.35489 0.194143,0.1736 0.410884,0.27529 0.449918,0.58653 0.183871,1.33538 0.420129,2.65945 0.944006,3.90854 0.288646,0.68823 0.645088,1.34872 0.966604,2.02257 0.472517,0.99023 0.874156,1.99074 0.848476,3.1258 -0.01027,0.4643 0.13251,0.93168 0.198251,1.39804 a 3.0672485,3.0672486 0 0 1 0,0.38314 c -0.577292,-0.35233 -1.118631,-0.60194 -1.561359,-0.97071 -0.7437,-0.61632 -1.620937,-0.95839 -2.485848,-1.31175 -1.062135,-0.43553 -2.150977,-0.81252 -3.249064,-1.14533 a 3.3671938,3.3671939 0 0 0 -1.375433,-0.0791 c -1.02721,0.13456 -1.989706,0.12121 -2.954256,-0.40267 -0.69953,-0.38006 -1.522325,-0.5362 -2.291705,-0.78478 -0.76938,-0.24859 -1.105278,-0.71905 -1.110414,-1.51206 a 5.3825814,5.3825797 0 0 0 -0.803278,-2.84023 3.1432621,3.1432622 0 0 1 -0.464299,-1.72674 16.009065,16.009066 0 0 1 0.400612,-3.56134 c 0.326653,-1.38981 0.569074,-2.80017 0.935788,-4.17869 0.147918,-0.55572 0.237285,-1.19567 0.772462,-1.58601 0.116075,-0.0842 0.238312,-0.16127 0.357469,-0.24139 z"
     id="path8"
     inkscape:connector-curvature="0"
     style="fill:#c8c5c3;stroke-width:0.10272098" />
  <path
     class="cls-2"
     d="m 46.655926,43.553265 c -0.111966,-0.41089 -0.262966,-0.82177 -0.32768,-1.2419 a 16.030636,16.030637 0 0 1 -0.205442,-2.00511 c -0.03287,-1.29839 -0.465326,-2.45709 -1.104251,-3.56237 -0.381095,-0.65946 -0.81355,-1.30352 -1.085761,-2.00716 -0.336924,-0.87005 -0.730346,-1.73496 -0.538257,-2.74882 0.157163,-0.83101 0.09553,-1.70106 0.205441,-2.5444 0.07191,-0.55161 0.266048,-1.08884 0.425265,-1.6271 0.123266,-0.4191 0.279401,-0.82176 0.418075,-1.24087 a 0.68412194,0.68412177 0 0 0 0.0339,-0.37595 c -1.287094,1.11246 -1.521298,2.73032 -2.021549,4.24134 -0.550585,-0.0216 -0.777598,-0.45402 -0.924489,-0.79814 a 7.5386949,7.5386932 0 0 1 -0.464299,-1.82535 23.761417,23.761418 0 0 1 -0.21366,-2.59062 c -0.02773,-0.92963 0.05855,-1.8952 0.583456,-2.66458 0.492033,-0.71905 1.161774,-1.33538 1.833569,-1.90137 0.196197,-0.16641 0.69234,-0.076 1.010775,0.0236 0.719047,0.22393 1.40625,0.53004 2.107834,0.79916 a 1.3466721,1.3466721 0 0 0 0.354388,0.10273 c 0.627625,0.0524 1.058026,0.45402 1.438093,0.87723 0.158191,0.17463 0.184898,0.51361 0.191061,0.77452 0.04212,1.74626 0.04212,3.49251 0.09553,5.24493 0.06882,2.30917 0.189007,4.61628 0.254748,6.92545 0.0226,0.78684 -0.05547,1.57677 -0.08218,2.36258 -0.02363,0.69132 -0.03184,1.38468 -0.06369,2.07702 a 3.0436227,3.0436228 0 0 1 -0.108884,0.64817 6.9583213,6.9583196 0 0 1 -1.376461,2.71492 c -0.102721,0.12429 -0.189007,0.26502 -0.28351,0.39753 z"
     id="path10"
     inkscape:connector-curvature="0"
     style="fill:#c2a89f;stroke-width:0.10272098" />
  <path
     class="cls-2"
     d="m 38.067425,18.867355 c -0.472516,0.15819 -0.947087,0.30816 -1.417549,0.47663 -0.85053,0.29789 -1.63121,0.79095 -2.580352,0.80738 -0.75089,0.0134 -1.312774,-0.39958 -1.335372,-1.13814 -0.02979,-1.00359 -0.01335,-2.0082 -0.02671,-3.01178 0,-0.34001 -0.04109,-0.68002 -0.06574,-1.06214 a 1.458638,1.458638 0 0 0 0.346169,0.0329 1.0847336,1.0847336 0 0 0 0.410884,-0.14484 c 0.03698,-0.0257 0.01233,-0.24653 -0.04622,-0.28659 a 1.0754887,1.0754887 0 0 0 -0.46019,-0.17462 c -0.107857,-0.0144 -0.227013,0.0637 -0.344115,0.10272 -0.08423,-0.50744 0.198251,-0.6872 1.221352,-0.80122 -0.224959,-0.39651 -0.230095,-0.39754 -1.099114,-0.0976 -0.0062,-0.0113 -0.01952,-0.0277 -0.01644,-0.0349 0.379041,-0.71904 0.737537,-1.45761 1.154584,-2.15714 0.09348,-0.15716 0.386231,-0.2681 0.591673,-0.27323 0.62968,-0.0154 1.232652,0.0452 1.806862,0.42321 0.57421,0.37801 1.31791,0.55058 1.9291,0.90805 0.689257,0.40267 0.924488,1.09398 0.941951,1.88288 a 3.7811594,3.7811595 0 0 0 0.169489,1.01282 c 0.112993,0.37699 0.397531,0.49101 0.791979,0.35028 0.270156,-0.0965 0.513605,-0.27426 0.790952,-0.33898 0.229067,-0.0544 0.664604,-0.0637 0.695421,0.0216 a 1.3045565,1.3045565 0 0 1 0.02054,0.85669 c -0.251666,0.63071 -0.581401,1.23265 -0.889564,1.8387 -0.288646,0.57011 -0.275292,1.07447 0.160245,1.59732 0.09245,0.11093 -0.102721,0.52901 -0.249612,0.75397 -0.17668,0.27221 -0.440673,0.48792 -0.664605,0.73137 -0.506414,0.55161 -0.746781,1.24909 -0.980985,1.93013 -0.422183,1.23265 -0.711856,2.50742 -1.180263,3.71644 -0.29481,0.75706 -0.564966,1.57677 -1.350781,2.06367 -0.719047,0.44992 -1.423713,0.70158 -2.235209,0.23831 -0.343088,-0.1962 -0.726237,-0.32152 -1.073434,-0.5136 -0.796088,-0.44068 -0.791979,-1.29121 -1.013856,-2.02977 -0.426292,-1.42166 0.0565,-2.77347 0.318435,-4.13452 0.02362,-0.12224 0.22085,-0.26605 0.362605,-0.30816 0.664605,-0.1736 0.707747,-0.20545 0.783761,-0.90395 0.04211,-0.38315 0.308163,-0.55572 0.773489,-0.48484 0.710829,0.10991 1.296339,-0.2568 1.915746,-0.49409 0.308163,-0.11916 0.616326,-0.24756 0.924489,-0.38828 a 7.7996061,7.7996045 0 0 0 0.899836,-0.47149 c 0.08526,-0.0545 0.0945,-0.22804 0.137646,-0.3472 z m -2.495093,-1.67024 c -0.314326,-0.35131 -1.36208,-0.47252 -1.97327,-0.20544 -0.273238,0.11813 -0.631734,0.18798 -0.647142,0.55366 0.433483,-0.0575 0.836149,-0.35439 1.262441,-0.41088 0.442727,-0.0616 0.909081,0.12121 1.357971,0.0627 z m -0.356441,-4.05029 c 0.804305,-0.59167 1.558277,-0.3246 2.331766,0.22393 -0.167435,-0.65844 -1.013856,-1.01488 -1.739066,-0.86183 -0.40883,0.0853 -0.623517,0.29892 -0.5927,0.6379 z m 0.456081,1.19464 a 0.49819676,0.49819678 0 0 0 0.468407,0.14484 c 0.211606,-0.0431 0.389313,-0.0791 0.562911,-0.1284 0.09039,-0.0257 0.237286,-0.12737 0.229068,-0.16538 -0.02363,-0.10272 -0.102721,-0.25475 -0.182843,-0.27324 a 2.5803511,2.5803512 0 0 0 -0.841285,-0.0822 c -0.120183,0.0154 -0.287619,0.24448 -0.294809,0.38418 a 0.17668009,0.1766801 0 0 0 0.05855,0.12018 z m -1.007693,1.47405"
     id="path12"
     inkscape:connector-curvature="0"
     style="fill:#c2a89f;stroke-width:0.10272098" />
  <path
     class="cls-2"
     d="m 28.964291,36.913375 c -0.41602,-0.14072 -0.872101,-0.25269 -1.290175,-0.44683 -0.682068,-0.31638 -1.335373,-0.70159 -2.007168,-1.02721 -0.571129,-0.27632 -0.601945,-0.41089 -0.402667,-0.99229 0.27632,-0.80738 0.812523,-1.55417 0.701585,-2.4653 -0.0678,-0.55469 -0.199279,-1.10117 -0.300973,-1.65175 -0.178734,-0.97277 0.0082,-1.88288 0.470462,-2.74779 a 8.1971363,8.1971347 0 0 0 0.397531,-0.85669 c 0.31638,-0.80534 0.804305,-1.46994 1.589093,-1.86336 0.753972,-0.37802 1.335373,-0.95428 1.89623,-1.55725 0.08731,-0.0935 0.243448,-0.12019 0.367741,-0.17874 a 1.5675221,1.5675222 0 0 1 0.02465,0.41808 c -0.131483,0.61632 -0.275292,1.22649 -0.426292,1.83665 -0.115048,0.46635 -0.238313,0.93271 -0.373905,1.39392 -0.551611,1.88082 -0.697475,3.80684 -0.605026,5.75238 0.01541,0.32562 0.185925,0.64611 0.292755,0.9666 0.205442,0.63276 0.474571,1.2532 0.624543,1.90034 0.137646,0.59578 -0.281455,1.02207 -0.650224,1.42782 -0.05341,0.0596 -0.177707,0.0555 -0.308163,0.0914 z"
     id="path14"
     inkscape:connector-curvature="0"
     style="fill:#c2a89f;stroke-width:0.10272098" />
  <path
     class="cls-3"
     d="m 49.597855,38.908225 c -0.102721,-0.23832 -0.271184,-0.47047 -0.298918,-0.71905 -0.06471,-0.59578 -0.07704,-1.19876 -0.08731,-1.79967 -0.01849,-1.03954 -0.01335,-2.07908 -0.02979,-3.11758 -0.01644,-1.07447 -0.05752,-2.14893 -0.07191,-3.22339 -0.02876,-2.16228 -0.0452,-4.32455 -0.07088,-6.48786 -0.02568,-2.23007 -0.04725,-4.46117 -0.08937,-6.69124 -0.01233,-0.63071 -0.102721,-1.25936 -0.137646,-1.8911 -0.0452,-0.86696 -0.05444,-1.73495 -0.102721,-2.60089 -0.02465,-0.41088 -0.153054,-0.81252 -0.170517,-1.22033 -0.05341,-1.3199599 -0.102721,-2.6399299 -0.102721,-3.9609199 -0.01746,-1.99587 -0.0072,-3.99173 0,-5.98658 0,-0.24344 0.08218,-0.48689 0.12532,-0.73034 l 0.143809,-0.0113 c 0.0565,0.10272 0.161272,0.21263 0.161272,0.32049 0.0113,1.6651 -0.02773,3.33227 0.02055,4.99635 0.04622,1.61888 0.03595,3.23673 0.235231,4.8576699 a 53.172508,53.172491 0 0 1 0.374931,7.99786 c -0.04725,1.66511 -0.01438,3.33227 0.02465,4.9984 0.02363,0.9625 0.137646,1.92191 0.196197,2.88441 0.01746,0.29891 -0.0339,0.60297 -0.01643,0.90189 0.08731,1.48329 0.205442,2.96452 0.276319,4.44782 0.04828,0.94708 0.03082,1.89828 0.07293,2.84639 0.0339,0.76836 0.140728,1.53363 0.1623,2.30198 a 6.4888864,6.4888847 0 0 1 -0.137647,1.36311 c -0.03493,0.18901 -0.205442,0.3513 -0.31638,0.52593 z"
     id="path16"
     inkscape:connector-curvature="0"
     style="fill:#c2bec2;stroke-width:0.10272098" />
  <path
     class="cls-2"
     d="m 49.831031,50.282515 c 0.774517,-0.2229 1.232652,0.28556 1.618883,0.91627 0.236258,0.38418 0.488952,0.76116 0.686176,1.16486 0.248585,0.5136 0.08731,0.9553 -0.345142,1.30455 -0.659469,0.53107 -1.274768,1.11864 -1.951699,1.62813 -0.243449,0.18387 -0.598863,0.24037 -0.913189,0.29276 -0.07704,0.0134 -0.271184,-0.21161 -0.280429,-0.33796 -0.02876,-0.36055 -0.218795,-0.42321 -0.525931,-0.41088 -0.170517,0.005 -0.427319,0 -0.498197,-0.10272 a 2.6553374,2.6553375 0 0 1 -0.33487,-0.8115 c -0.02363,-0.0842 0.07601,-0.23831 0.160244,-0.30816 0.813551,-0.7098 1.103224,-1.60758 1.011802,-2.66458 -0.05033,-0.57216 0.06266,-0.68104 0.633789,-0.6944 0.221877,-0.0133 0.442727,0.0103 0.738563,0.0236 z"
     id="path18"
     inkscape:connector-curvature="0"
     style="fill:#c2a89f;stroke-width:0.10272098" />
  <path
     class="cls-3"
     d="m 21.70089,34.183055 c -0.0719,-0.20544 -0.198251,-0.40164 -0.205441,-0.60605 -0.03082,-0.85259 -0.02055,-1.7062 -0.03801,-2.55981 -0.02054,-1.00358 -0.05444,-2.00717 -0.08115,-3.01075 -0.05033,-1.84384 -0.102721,-3.68769 -0.148945,-5.53153 -0.03801,-1.70517 -0.04006,-3.41033 -0.0904,-5.11345 -0.05444,-1.81713 -0.167435,-3.63119 -0.215714,-5.44421 -0.03184,-1.1967 0.01335,-2.3964799 0.0072,-3.5952399 0,-0.46532 -0.08218,-0.93167 -0.06677,-1.39597 0.04931,-1.56239 0.126347,-3.12375 0.192088,-4.68511 h 0.115048 c 0,0.47766 0,0.95428 0,1.43091 -0.01233,1.74625 -0.04828,3.49765 -0.0339,5.24493 0.0072,0.94709 0.102721,1.8931499 0.149973,2.8402299 0.01849,0.32974 0.02157,0.65947 0.04725,0.98921 0.118129,1.53054 0.25783,3.06108 0.356442,4.59265 0.06369,0.98921 0.07807,1.98149 0.09656,2.97275 q 0.05752,3.03849 0.0945,6.07594 c 0.02054,1.77502 0.02568,3.55004 0.03184,5.32403 0,0.66153 -0.0113,1.32305 -0.01746,1.98457 0,0.14689 0,0.29378 0,0.44068 z"
     id="path20"
     inkscape:connector-curvature="0"
     style="fill:#c2bec2;stroke-width:0.10272098" />
  <path
     class="cls-3"
     d="m 50.277868,43.155735 c -0.140728,-0.17874 -0.308163,-0.30816 -0.355415,-0.46944 -0.121211,-0.40164 -0.320489,-0.71904 -0.708775,-0.8947 -0.388285,-0.17565 -0.539285,-0.43553 -0.318435,-0.85566 0.08012,-0.15203 0.09142,-0.34309 0.124293,-0.51361 a 0.58140095,0.58140078 0 0 1 0.627625,-0.4797 c 0.164353,0 0.364659,0.23523 0.473544,0.41088 0.286591,0.46738 0.513605,0.97379 0.802251,1.43809 0.212632,0.34309 0.110938,0.68104 0,0.97791 -0.0678,0.15922 -0.369796,0.22907 -0.645088,0.38623 z"
     id="path22"
     inkscape:connector-curvature="0"
     style="fill:#c2bec2;stroke-width:0.10272098" />
  <path
     class="cls-2"
     d="m 50.347718,44.807485 c 0,0.13765 0,0.27529 0,0.41089 0,0.35644 -0.221877,0.57626 -0.523877,0.57523 -0.376986,0 -0.757054,-0.11607 -1.129931,-0.21366 -0.06574,-0.0175 -0.155109,-0.2342 -0.121211,-0.28967 a 13.873496,13.873496 0 0 1 0.880319,-1.31791 c 0.0904,-0.11607 0.387258,-0.21674 0.479707,-0.15614 0.175653,0.113 0.299946,0.33693 0.389313,0.53929 0.05547,0.12635 0.01027,0.29789 0.01027,0.44992 z"
     id="path24"
     inkscape:connector-curvature="0"
     style="fill:#c2a89f;stroke-width:0.10272098" />
  <path
     class="cls-2"
     d="m 46.060144,52.076025 c 0.369796,0.43245 0.625571,0.87929 0.674877,1.47302 -0.992285,-0.6379 -1.212108,-1.1022 -0.674877,-1.47302 z"
     id="path26"
     inkscape:connector-curvature="0"
     style="fill:#c2a89f;stroke-width:0.10272098" />
  <path
     class="cls-4"
     d="m 32.069547,26.545755 c 0.221877,0.73856 0.217768,1.58909 1.013856,2.02976 0.347197,0.19209 0.730346,0.31741 1.073434,0.51361 0.811496,0.46327 1.511026,0.2116 2.235209,-0.23832 0.785815,-0.48689 1.055972,-1.30661 1.350781,-2.06366 0.468408,-1.20903 0.75808,-2.48688 1.180263,-3.71645 0.234204,-0.68104 0.474571,-1.37851 0.980985,-1.93012 0.223932,-0.24345 0.487925,-0.45917 0.664605,-0.73138 0.144837,-0.22496 0.342061,-0.64303 0.249612,-0.75397 -0.435537,-0.52285 -0.448891,-1.02721 -0.160245,-1.59731 0.308163,-0.60811 0.637898,-1.208 0.889564,-1.83871 a 1.3045565,1.3045565 0 0 0 -0.02054,-0.85669 c -0.03082,-0.0853 -0.466353,-0.076 -0.695421,-0.0216 -0.275292,0.0647 -0.520795,0.24242 -0.790952,0.33898 -0.394448,0.14073 -0.678985,0.0267 -0.791978,-0.35028 a 3.7811594,3.7811595 0 0 1 -0.16949,-1.01283 c -0.01438,-0.7889 -0.252694,-1.48021 -0.941951,-1.88287 -0.616325,-0.35747 -1.335372,-0.52285 -1.9291,-0.90806 -0.593727,-0.3852 -1.177182,-0.43862 -1.806862,-0.42321 -0.205442,0.005 -0.498197,0.11608 -0.591673,0.27324 -0.417047,0.69953 -0.775543,1.43809 -1.154584,2.15714 0,0.007 0.01027,0.0236 0.01644,0.0349 0.869019,-0.29995 0.874155,-0.29892 1.099114,0.0976 -1.02721,0.11402 -1.305583,0.29378 -1.221352,0.80122 0.117102,-0.037 0.236258,-0.11504 0.344115,-0.10272 a 1.0754887,1.0754887 0 0 1 0.46019,0.17463 c 0.05855,0.0401 0.0832,0.26091 0.04622,0.28659 a 1.0847336,1.0847336 0 0 1 -0.410884,0.14484 1.458638,1.458638 0 0 1 -0.34617,-0.0329 c 0.02465,0.38212 0.06163,0.71904 0.06574,1.06213 0.01335,1.00359 0,2.0082 0.02671,3.01178 0.02157,0.73856 0.583455,1.1515 1.335373,1.13815 0.949142,-0.0164 1.729821,-0.51361 2.580351,-0.80739 0.470462,-0.16538 0.945033,-0.31843 1.417549,-0.47662 l 0.112993,0.151 c -0.04314,0.11915 -0.05239,0.29275 -0.137646,0.34719 a 7.7996061,7.7996045 0 0 1 -0.899835,0.47149 c -0.300973,0.14073 -0.609136,0.26913 -0.924489,0.38829 -0.616326,0.23728 -1.204918,0.604 -1.915747,0.49409 -0.462244,-0.0709 -0.731373,0.10272 -0.773489,0.48484 -0.07601,0.69747 -0.119156,0.73035 -0.783761,0.90394 -0.141755,0.037 -0.338979,0.18079 -0.362605,0.30817 -0.25783,1.36105 -0.740618,2.70978 -0.314326,4.13144 z"
     id="path28"
     inkscape:connector-curvature="0"
     style="fill:none;stroke-width:0.10272098" />
  <path
     class="cls-4"
     d="m 29.298135,33.493795 c -0.102721,-0.32049 -0.277347,-0.64098 -0.292755,-0.9666 -0.09245,-1.9517 0.05341,-3.87258 0.605026,-5.75238 0.135592,-0.46121 0.258857,-0.92449 0.373905,-1.39392 0.151,-0.61016 0.294809,-1.22238 0.426292,-1.83665 a 1.5675221,1.5675222 0 0 0 -0.02465,-0.41808 c -0.124293,0.0585 -0.280428,0.0853 -0.367741,0.17874 -0.564966,0.60297 -1.142258,1.17923 -1.89623,1.55725 -0.784788,0.39342 -1.272713,1.05802 -1.589093,1.86336 a 8.1971363,8.1971347 0 0 1 -0.397531,0.85669 c -0.462244,0.86491 -0.649196,1.77502 -0.470462,2.74779 0.102721,0.55058 0.233177,1.09706 0.300973,1.65175 0.110938,0.91011 -0.425265,1.65689 -0.701585,2.4653 -0.199278,0.58243 -0.168462,0.71905 0.402667,0.99229 0.675904,0.32768 1.3251,0.71288 2.007168,1.02721 0.418074,0.19414 0.874155,0.30816 1.290175,0.44683 0.130456,-0.0359 0.254748,-0.0318 0.308163,-0.0914 0.368769,-0.41088 0.78787,-0.83204 0.650224,-1.42782 -0.149972,-0.64714 -0.413965,-1.26963 -0.624543,-1.90034 z"
     id="path30"
     inkscape:connector-curvature="0"
     style="fill:none;stroke-width:0.10272098" />
  <path
     class="cls-4"
     d="m 48.705209,12.378475 c 0.05239,0.86593 0.06163,1.73393 0.102721,2.60089 0.03287,0.63174 0.12532,1.26039 0.137647,1.8911 0.04212,2.23007 0.06369,4.46117 0.08937,6.69124 0.02568,2.1633 0.04212,4.32558 0.07088,6.48786 0.01438,1.07446 0.05547,2.14892 0.07191,3.22338 0.01643,1.03851 0.0113,2.07805 0.02979,3.11758 0.01027,0.60092 0.0226,1.20389 0.08731,1.79968 0.02773,0.24755 0.19517,0.4797 0.298918,0.71904 h 0.156136 c 0.109911,-0.17462 0.281455,-0.33692 0.316381,-0.52593 a 6.4888864,6.4888847 0 0 0 0.137646,-1.36311 c -0.02157,-0.76835 -0.128402,-1.53362 -0.162299,-2.30197 -0.04212,-0.94812 -0.02465,-1.89931 -0.07293,-2.8464 -0.07499,-1.48329 -0.189007,-2.96453 -0.27632,-4.44782 -0.01746,-0.29892 0.0339,-0.60297 0.01644,-0.90189 -0.05855,-0.9625 -0.172572,-1.92191 -0.196198,-2.88441 -0.03903,-1.66613 -0.0719,-3.33329 -0.02465,-4.9984 A 53.172508,53.172491 0 0 0 49.11303,10.641455 C 48.913751,9.0205251 48.924023,7.4026651 48.877799,5.7837851 c -0.04828,-1.66408 -0.0092,-3.33124 -0.02054,-4.99635 0,-0.10272 -0.102721,-0.21366 -0.161272,-0.32049 l -0.14381,0.0113 c -0.04314,0.24345 -0.124292,0.4869 -0.125319,0.73035 -0.0113,1.99484 -0.02157,3.99071 0,5.98658 0.01027,1.32099 0.05444,2.64095 0.102721,3.9609199 0.0226,0.40985 0.150999,0.81355 0.175652,1.22238 z"
     id="path32"
     inkscape:connector-curvature="0"
     style="fill:none;stroke-width:0.10272098" />
  <path
     class="cls-4"
     d="m 49.647161,39.938515 a 0.58140095,0.58140078 0 0 0 -0.627625,0.4797 c -0.03287,0.17463 -0.04417,0.36569 -0.124293,0.51361 -0.22085,0.42013 -0.06471,0.67693 0.318435,0.85566 0.38315,0.17874 0.587564,0.49307 0.708775,0.8947 0.04828,0.16333 0.214687,0.29071 0.355415,0.46944 0.275292,-0.15716 0.577292,-0.22701 0.639952,-0.38931 0.116074,-0.29687 0.217768,-0.63482 0,-0.97791 -0.289674,-0.46532 -0.513605,-0.97174 -0.802251,-1.43809 -0.103749,-0.17257 -0.304055,-0.40267 -0.468408,-0.4078 z"
     id="path34"
     inkscape:connector-curvature="0"
     style="fill:none;stroke-width:0.10272098" />
  <path
     class="cls-4"
     d="m 50.325119,44.357565 c -0.08937,-0.20544 -0.213659,-0.42629 -0.389312,-0.53928 -0.09245,-0.0606 -0.389313,0.0401 -0.479707,0.15613 a 13.873496,13.873496 0 0 0 -0.880319,1.31791 c -0.0339,0.0555 0.05547,0.27222 0.121211,0.28968 0.369795,0.10272 0.749863,0.21263 1.129931,0.21366 0.301999,0 0.527986,-0.2188 0.523877,-0.57524 0,-0.13765 0,-0.27529 0,-0.41088 h -0.01233 c -0.0031,-0.15409 0.04212,-0.32563 -0.01335,-0.45198 z"
     id="path36"
     inkscape:connector-curvature="0"
     style="fill:none;stroke-width:0.10272098" />
  <path
     class="cls-4"
     d="m 21.22632,22.474915 c 0.04109,1.84898 0.102721,3.68769 0.148945,5.53153 0.02671,1.00358 0.06061,2.00717 0.08115,3.01075 0.01746,0.85361 0.0072,1.70722 0.03801,2.55981 0.0082,0.20544 0.134565,0.40472 0.205442,0.60605 l 0.191061,-0.0514 c 0,-0.14689 0,-0.29378 0,-0.44067 0.0062,-0.66153 0.01952,-1.32305 0.01746,-1.98457 -0.0062,-1.77399 -0.0113,-3.54901 -0.03184,-5.32403 q -0.0339,-3.03643 -0.0945,-6.07595 c -0.01849,-0.99126 -0.03287,-1.98354 -0.09656,-2.97274 -0.102721,-1.53157 -0.238312,-3.06212 -0.356441,-4.59266 -0.02568,-0.32973 -0.02876,-0.65947 -0.04725,-0.9892 -0.05136,-0.94709 -0.142782,-1.8931499 -0.149973,-2.8402399 -0.01438,-1.74625 0.02157,-3.49251 0.0339,-5.24493 0,-0.47663 0,-0.95325 0,-1.4309 h -0.115057 c -0.06574,1.56136 -0.142783,3.12271 -0.192089,4.6851 -0.01541,0.4643 0.06471,0.93065 0.06677,1.39598 0.0062,1.19773 -0.03903,2.3975099 -0.0072,3.5952299 0.04828,1.81611 0.161272,3.63016 0.215714,5.44422 0.05239,1.70825 0.05444,3.41444 0.09245,5.11858 z"
     id="path38"
     inkscape:connector-curvature="0"
     style="fill:none;stroke-width:0.10272098" />
  <path
     class="cls-4"
     d="m 51.449914,51.198785 c -0.387258,-0.63071 -0.844366,-1.13917 -1.618883,-0.91627 -0.295836,-0.0134 -0.513604,-0.037 -0.736509,-0.0318 -0.571129,0.0133 -0.684122,0.12223 -0.633788,0.69439 0.09142,1.057 -0.198252,1.9517 -1.011802,2.66458 -0.08423,0.074 -0.183871,0.22804 -0.160245,0.30817 a 2.6553374,2.6553375 0 0 0 0.33487,0.81149 c 0.07088,0.10272 0.32768,0.10889 0.498197,0.10272 0.308163,-0.009 0.49717,0.0534 0.525932,0.41089 0.0092,0.12634 0.205442,0.3513 0.280428,0.33795 0.314326,-0.0524 0.669741,-0.10889 0.91319,-0.29276 0.674876,-0.5136 1.290175,-1.09706 1.951698,-1.62812 0.432456,-0.34925 0.593728,-0.79506 0.345143,-1.30456 -0.199279,-0.39548 -0.451973,-0.76835 -0.688231,-1.15664 z"
     id="path40"
     inkscape:connector-curvature="0"
     style="fill:none;stroke-width:0.10272098" />
  <path
     class="cls-4"
     d="m 45.410947,40.706865 c 0.02568,-1.13507 -0.375958,-2.13557 -0.848475,-3.1258 -0.321517,-0.67385 -0.677958,-1.33537 -0.966604,-2.02258 -0.523877,-1.24908 -0.760136,-2.57521 -0.944006,-3.90853 -0.04314,-0.30816 -0.255775,-0.41088 -0.449918,-0.58654 -0.471489,-0.42321 -1.079598,-0.81355 -1.314829,-1.35489 a 6.1468255,6.1468238 0 0 1 -0.534149,-2.85564 c 0.08115,-1.1515 0.180789,-2.30403 0.345143,-3.44526 a 3.1453165,3.1453166 0 0 1 0.513605,-1.29223 c 0.372877,-0.53929 0.845393,-1.01283 1.303529,-1.48637 0.185925,-0.19312 0.282483,-0.39959 0.07807,-0.55264 -0.131483,-0.0976 -0.464299,-0.10889 -0.581401,-0.0103 a 6.2598186,6.2598169 0 0 0 -1.049808,1.09397 c -0.531068,0.7437 -1.00153,1.53055 -1.495618,2.29993 a 1.2644953,1.2644953 0 0 0 -0.133537,0.25577 c -0.47149,1.33024 -0.892646,2.67999 -1.425767,3.98352 -0.269129,0.65844 -0.62557,1.36516 -1.145339,1.81816 -0.777597,0.67693 -1.813025,0.49717 -2.773466,0.35028 a 1.3939238,1.3939238 0 0 1 -0.710829,-0.30816 c -0.719047,-0.66871 -1.335373,-1.42371 -1.578822,-2.4047 -0.236258,-0.96558 -0.168462,-1.93629 -0.0113,-2.91009 0.108884,-0.67076 0.157163,-1.3518 0.233176,-2.02771 l -0.1397,-0.0688 c -0.119157,0.0801 -0.241394,0.15716 -0.357469,0.24139 -0.535177,0.39034 -0.624544,1.02721 -0.772462,1.58602 -0.366714,1.37851 -0.609135,2.78887 -0.935788,4.17869 a 16.009065,16.009066 0 0 0 -0.400612,3.56133 3.1432621,3.1432622 0 0 0 0.464299,1.72674 5.3825814,5.3825797 0 0 1 0.804305,2.83921 c 0,0.79506 0.356442,1.26758 1.110414,1.51205 0.753972,0.24448 1.592175,0.40472 2.291705,0.78479 0.96455,0.52388 1.923964,0.53723 2.954256,0.40267 a 3.3671938,3.3671939 0 0 1 1.375433,0.0791 c 1.098087,0.33282 2.18693,0.7098 3.249065,1.14534 0.86491,0.35336 1.746256,0.6944 2.485847,1.31175 0.442728,0.36877 0.984067,0.61632 1.561359,0.97071 a 3.0672485,3.0672486 0 0 0 0,-0.38315 c -0.0678,-0.46635 -0.210578,-0.93373 -0.200307,-1.39803 z"
     id="path42"
     inkscape:connector-curvature="0"
     style="fill:none;stroke-width:0.10272098" />
  <path
     class="cls-4"
     d="m 46.735021,53.549045 c -0.04931,-0.59373 -0.308163,-1.04057 -0.674877,-1.47302 -0.537231,0.37082 -0.317408,0.83512 0.674877,1.47302 z"
     id="path44"
     inkscape:connector-curvature="0"
     style="fill:none;stroke-width:0.10272098" />
  <path
     class="cls-4"
     d="m 48.586053,39.854285 c 0.03184,-0.69234 0.04006,-1.38571 0.06369,-2.07702 0.02671,-0.78993 0.102721,-1.57985 0.08218,-2.36259 -0.06574,-2.30916 -0.185925,-4.61628 -0.254748,-6.92544 -0.05342,-1.74626 -0.05342,-3.49252 -0.09553,-5.24494 -0.0062,-0.26502 -0.03287,-0.59989 -0.191061,-0.77451 -0.382122,-0.42321 -0.812523,-0.82177 -1.438093,-0.87724 a 1.3466721,1.3466721 0 0 1 -0.354388,-0.10272 c -0.701584,-0.26913 -1.391869,-0.57524 -2.107834,-0.79917 -0.318436,-0.10272 -0.814578,-0.19004 -1.010775,-0.0236 -0.671795,0.566 -1.341536,1.18232 -1.83357,1.90137 -0.524904,0.76938 -0.616326,1.73496 -0.583455,2.66458 a 23.761417,23.761418 0 0 0 0.21366,2.59062 7.5386949,7.5386932 0 0 0 0.464299,1.82536 c 0.143809,0.34411 0.370822,0.77657 0.924489,0.79814 0.500251,-1.51103 0.734455,-3.12888 2.021549,-4.24135 a 0.68412194,0.68412177 0 0 1 -0.0339,0.37596 c -0.138674,0.41088 -0.29481,0.82177 -0.418075,1.24087 -0.159217,0.53825 -0.35336,1.07549 -0.425265,1.6271 -0.109911,0.84334 -0.04828,1.71338 -0.205442,2.5444 -0.192088,1.01385 0.205442,1.87876 0.538258,2.74881 0.272211,0.70364 0.704666,1.3477 1.085761,2.00717 0.638925,1.10528 1.07138,2.25986 1.104251,3.56236 a 16.030636,16.030637 0 0 0 0.205442,2.00512 c 0.06471,0.42115 0.215714,0.82895 0.32768,1.24189 l 0.161272,0.0616 c 0.0945,-0.13251 0.179761,-0.27323 0.28351,-0.39753 a 6.9583213,6.9583196 0 0 0 1.376461,-2.71491 3.0436227,3.0436228 0 0 0 0.09964,-0.65433 z"
     id="path46"
     inkscape:connector-curvature="0"
     style="fill:none;stroke-width:0.10272098" />
  <path
     d="m 53.432429,44.893775 a 2.1571406,2.1571407 0 0 0 -0.09656,-0.27016 c -0.205442,-0.41088 -0.410884,-0.82177 -0.633789,-1.22238 -0.141755,-0.24858 -0.344115,-0.46224 -0.492033,-0.70775 -0.428347,-0.71391 -0.791979,-1.47199 -1.27785,-2.14276 -0.396503,-0.54853 -0.433482,-1.12993 -0.425264,-1.74112 0.01027,-0.74575 0.102721,-1.48945 0.12121,-2.23521 0.01849,-0.74575 -0.03698,-1.48226 -0.05033,-2.2239 -0.0113,-0.64715 0.02054,-1.29634 -0.01952,-1.94143 -0.06471,-1.07138 -0.205442,-2.13865 -0.252694,-3.21106 -0.102721,-2.40675 -0.156135,-4.81556 -0.227013,-7.22437 -0.03903,-1.30763 -0.07191,-2.61527 -0.102721,-3.92291 -0.02773,-1.02721 -0.02465,-2.06469 -0.08834,-3.09396 -0.05547,-0.90189 -0.194143,-1.79761 -0.279401,-2.69745 -0.08629,-0.91833 -0.172571,-1.83665 -0.219823,-2.7570299 q -0.102721,-2.09962 -0.155109,-4.20437 c -0.03493,-1.49973 -0.02465,-3.00048 -0.06677,-4.50021 -0.0062,-0.22393 -0.151,-0.47354 -0.300973,-0.65433 -0.149972,-0.18079 -0.410884,-0.22804 -0.513605,0.0811 -0.13251,0.41088 -0.300972,0.83512 -0.308163,1.2573 -0.02876,1.12994 0.02055,2.25987 0.03287,3.3898 0.0113,0.99125 0.02363,1.98251 0.01952,2.97274 -0.0051,1.04262 -0.07704,2.08627 -0.03287,3.1257999 0.04725,1.11144 0.25064,2.21569 0.288646,3.32713 0.07704,2.24446 0.0904,4.49199 0.121211,6.7385 0,0.33179 -0.03287,0.66461 -0.05342,1.05597 -0.250639,-0.19003 -0.420129,-0.35644 -0.616326,-0.46327 -0.590645,-0.31638 -1.194645,-0.60605 -1.789399,-0.91216 -0.171544,-0.0873 -0.32049,-0.23831 -0.499224,-0.28557 -1.046727,-0.27837 -1.951699,-0.96044 -3.059031,-1.06418 a 4.4385737,4.4385738 0 0 1 -0.805333,-0.16847 c -0.421156,-0.12018 -0.488952,-0.28556 -0.267074,-0.66049 0.363632,-0.61633 0.7437,-1.21725 1.111441,-1.82741 0.162299,-0.26913 0.259884,-0.60708 0.483816,-0.80328 0.444781,-0.39342 0.585509,-0.88956 0.607081,-1.42474 0.02671,-0.6985 0,-1.39906 -0.02054,-2.09859 -0.0226,-0.98715 -0.533122,-1.72366 -1.276822,-2.29581 -0.640978,-0.4930599 -1.324073,-0.9337399 -2.004086,-1.3733799 -0.821768,-0.5321 -1.753447,-0.71083 -2.709779,-0.67282 -0.753972,0.0298 -1.509998,0.14586 -2.180766,0.55058 -0.295837,0.17874 -0.544421,0.17565 -0.862856,-0.0411 -0.680013,-0.46532 -1.286067,-0.19619 -1.540815,0.57729 -0.102721,0.33077 -0.299945,0.63482 -0.467381,0.9429799 -0.205442,0.37185 -0.489979,0.71905 -0.616326,1.10836 -0.340006,1.09295 -0.428346,2.20748 -0.102721,3.3333 a 4.7251652,4.7251654 0 0 1 0.18798,1.05289 c 0.06471,1.27477 0.08937,2.55159 0.154081,3.82636 0.02157,0.42731 0.141755,0.83306 0.52285,1.11246 0.122238,0.0904 0.308163,0.26811 0.288646,0.3472 -0.07807,0.2455 -0.06574,0.59065 -0.496142,0.59681 -0.351306,0 -0.757054,0.008 -1.042618,0.17565 a 23.069078,23.069079 0 0 0 -2.05442,1.41652 q -1.129931,0.84129 -2.216719,1.74626 a 5.1196156,5.1196139 0 0 0 -0.875183,0.90806 c -0.205442,0.28248 -0.301999,0.64406 -0.469435,0.95838 -0.616325,1.14945 -0.899835,2.3482 -0.638924,3.65584 0.111966,0.56291 0.286591,1.17102 0.178734,1.70722 -0.182843,0.90292 -0.553666,1.77091 -0.886482,2.63788 -0.05239,0.13662 -0.336924,0.28146 -0.494088,0.26194 -0.428346,-0.0514 -0.847448,-0.18798 -1.269631,-0.29378 -0.245503,-0.0606 -0.350279,-0.19826 -0.349251,-0.47355 0.01027,-2.09448 0.03082,-4.18999 0,-6.28447 -0.04109,-2.43859 -0.120184,-4.87719 -0.211606,-7.31373 -0.07807,-2.06264 -0.184897,-4.12425 -0.308163,-6.18586 -0.0945,-1.63532 -0.303026,-3.26755 -0.324598,-4.9038999 -0.03698,-2.85051 0.03082,-5.70307 0.05958,-8.55563 0,-0.24345 -0.01438,-0.45505 -0.318435,-0.47149 -0.304054,-0.0164 -0.410884,0.18284 -0.438618,0.43348 -0.02774,0.25064 -0.02568,0.52285 -0.03698,0.78479 -0.0832,1.91061 -0.173598,3.82019 -0.243449,5.73081 -0.0113,0.32357 0.102721,0.65022 0.102721,0.97687 0.02157,1.39187 0.0092,2.7837399 0.03801,4.1756099 0.03184,1.54081 0.102721,3.08163 0.141755,4.62244 0.06882,2.67075 0.136619,5.3415 0.189007,8.01224 0.04622,2.32766 0.0719,4.65532 0.102721,6.98503 0.0072,0.52798 0,1.05597 0,1.70619 -0.43451,-0.2794 -0.821768,-0.48484 -1.15253,-0.75602 -0.315353,-0.25681 -0.553666,-0.60811 -0.86491,-0.87416 -1.500754,-1.28196 -2.910086,-2.63787 -4.04618,-4.27833 a 5.7523769,5.7523752 0 0 0 -2.095508,-1.86747 c -0.960441,-0.49203 -2.561862,-0.13456 -3.038487,0.83718 -0.205442,0.42732 -0.4807345,0.53312 -0.8659385,0.48279 -0.549557,-0.0709 -0.953251,0.22907 -1.349754,0.50539 a 2.1828209,2.182821 0 0 0 -0.669739,0.73753 c -0.470463,0.89162 -0.693367,1.84898 -0.790952,2.86386 -0.09759,1.01489 0.142782,1.78735 0.821768,2.55365 a 14.541183,14.541183 0 0 1 1.743174,2.52385 c 0.394449,0.69953 0.639952,1.48843 0.9080545,2.2537 0.433482,1.23265 0.941951,1.55109 2.236235,1.35592 a 0.4386186,0.43861861 0 0 1 0.365684,0.13668 c 0.424238,0.5136 0.809441,1.05802 1.238815,1.56547 0.288646,0.34206 0.627625,0.64303 0.947088,0.96044 0.298918,0.29686 0.605026,0.58653 0.90189,0.88648 0.249612,0.25372 0.463272,0.55161 0.739591,0.76938 0.955305,0.75294 1.931154,1.48124 2.888514,2.21055 -0.364659,0.87108 -0.719047,1.72058 -1.073434,2.56803 -0.785816,1.84898 -0.701585,3.72569 -0.254748,5.62295 0.134564,0.57421 0.393421,1.13814 0.419101,1.71338 0.03492,0.78993 0.09759,1.54903 0.397531,2.29068 0.143809,0.35541 0.479707,0.67796 0.976876,0.42937 0.221877,0.3698 0.773489,0.27735 0.96455,0.46944 a 0.56393838,0.56393821 0 0 0 0.286592,0.16949 c 0.27221,0.0514 0.410884,-0.1397 0.570101,-0.47355 0.536204,0.2188 0.805333,0.3246 1.004611,-0.0544 a 2.5875415,2.5875416 0 0 0 0.179762,-0.5023 0.81457758,0.81457742 0 0 1 0.503333,-0.57832 c 0.488952,-0.22496 1.014883,-0.49717 1.351808,-0.89573 0.547503,-0.65022 0.985094,-1.40009 1.413441,-2.1407 a 5.9157033,5.9157016 0 0 0 0.786843,-2.61015 0.88134622,0.88134606 0 0 1 0.102721,-0.23728 c 0.616326,0.72624 1.438094,1.04364 2.230072,1.40317 0.813551,0.36774 1.658944,0.66768 2.458114,1.06213 a 4.4909614,4.4909615 0 0 0 1.981487,0.48895 10.792894,10.792894 0 0 0 1.835624,-0.16435 c 0.646115,-0.10888 1.278877,-0.29378 1.915747,-0.453 0.425265,-0.10272 0.841285,-0.27221 1.272712,-0.32973 a 9.5869512,9.5869496 0 0 0 2.949119,-0.88135 14.33985,14.33985 0 0 0 3.873609,-2.77347 c 0.155108,-0.15716 0.389312,-0.23625 0.587564,-0.3513 -0.0062,0.23831 -0.0082,0.4756 -0.01952,0.71288 a 0.23728547,0.23728548 0 0 1 -0.05444,0.15306 c -0.432456,0.37596 -0.424238,0.906 -0.484843,1.40522 -0.05752,0.48073 0.289673,0.99126 0.719046,1.22135 0.429374,0.2301 0.86902,0.46327 0.936816,1.05803 0.03287,0.29789 0.215714,0.53107 0.587564,0.59681 0.197224,0.0349 0.404721,0.22393 0.532095,0.39958 0.300972,0.41089 0.81355,0.58346 1.24806,0.31946 a 13.287987,13.287987 0 0 0 1.308665,-0.88545 q 0.872101,-0.6872 1.687706,-1.44631 c 0.211605,-0.19723 0.429373,-0.46019 0.494088,-0.72932 a 2.7436774,2.7436775 0 0 0 -0.234204,-1.96814 c -0.06061,-0.11402 -0.01849,-0.41088 0.06369,-0.44991 0.570101,-0.29687 0.808414,-0.85464 0.963523,-1.38057 0.452999,-1.53465 0.480734,-3.08471 -0.06061,-4.6132 z m -32.512218,-32.9796 c -0.03184,-1.1967 0.01335,-2.3964799 0.0072,-3.5952399 0,-0.46532 -0.08218,-0.93168 -0.06677,-1.39597 0.04931,-1.56239 0.126347,-3.12375 0.192088,-4.68511 h 0.115048 c 0,0.47765 0,0.95428 0,1.4309 -0.01233,1.74626 -0.04828,3.49765 -0.0339,5.24494 0.0072,0.94709 0.102721,1.8931499 0.149972,2.8402299 0.01849,0.32974 0.02157,0.65947 0.04725,0.98921 0.118129,1.53054 0.25783,3.06108 0.356442,4.59265 0.06369,0.9892 0.07807,1.98149 0.09656,2.97275 q 0.05752,3.03848 0.0945,6.07594 c 0.02054,1.77502 0.02568,3.55004 0.03184,5.32403 0,0.66152 -0.0113,1.32305 -0.01746,1.98457 0,0.14689 0,0.29378 0,0.44067 l -0.191061,0.0514 c -0.0719,-0.20544 -0.198252,-0.40163 -0.205442,-0.60605 -0.03082,-0.85258 -0.02054,-1.70619 -0.03801,-2.55981 -0.02054,-1.00358 -0.05444,-2.00716 -0.08115,-3.01075 -0.05033,-1.84384 -0.102721,-3.68768 -0.148945,-5.53152 -0.03801,-1.70517 -0.04006,-3.41034 -0.09039,-5.11345 -0.0565,-1.81919 -0.169489,-3.63325 -0.217768,-5.44935 z m 0.794033,38.52037 c -0.476625,0.5136 -0.663577,1.12068 -0.891618,1.72263 -0.281455,0.73959 -0.483816,1.50794 -0.754999,2.37388 -0.616326,-0.58345 -0.979958,-1.16999 -1.058026,-1.89007 -0.102721,-0.9553 -0.02465,-1.91985 0.427319,-2.76833 0.280428,-0.52593 0.763217,-0.95222 1.194645,-1.38365 0.0904,-0.0914 0.368768,-0.0606 0.533122,-0.005 1.124795,0.38623 1.214162,1.23573 0.549557,1.95272 z m 29.763405,-5.03333 c 0.07499,0.22804 0.08423,0.47868 0.126347,0.75603 -0.595782,-0.0236 -0.973795,-0.44787 -0.763217,-0.8115 0.07499,-0.12737 0.22804,-0.20544 0.346169,-0.30816 0.100667,0.12121 0.245504,0.22804 0.290701,0.36671 z m -0.554693,-3.61578 c 0.212632,0.34309 0.110938,0.68104 0,0.9779 -0.06266,0.1623 -0.36466,0.23215 -0.639952,0.38932 -0.140728,-0.17874 -0.308163,-0.30817 -0.355415,-0.46944 -0.121211,-0.40164 -0.320489,-0.71905 -0.708775,-0.8947 -0.388285,-0.17565 -0.539285,-0.43553 -0.318435,-0.85566 0.08012,-0.15203 0.09142,-0.34309 0.124293,-0.51361 a 0.58140095,0.58140078 0 0 1 0.627625,-0.47971 c 0.164354,0 0.364659,0.23524 0.473544,0.41089 0.281455,0.46635 0.507441,0.97277 0.797115,1.43809 z m -0.575238,3.01897 c 0,0.13765 0,0.27529 0,0.41088 0,0.35645 -0.221877,0.57627 -0.523877,0.57524 -0.376986,0 -0.757054,-0.11607 -1.129931,-0.21366 -0.06574,-0.0175 -0.155109,-0.2342 -0.121211,-0.28967 a 13.873496,13.873496 0 0 1 0.880319,-1.31791 c 0.0904,-0.11608 0.387258,-0.21674 0.479707,-0.15614 0.175653,0.113 0.299946,0.33693 0.389313,0.53929 0.05547,0.12634 0.01027,0.29789 0.01027,0.44992 z M 48.426836,7.1941451 c -0.01746,-1.99587 -0.0072,-3.99174 0,-5.98658 0,-0.24345 0.08218,-0.4869 0.125319,-0.73035 l 0.14381,-0.0113 c 0.0565,0.10272 0.161272,0.21264 0.161272,0.32049 0.0113,1.66511 -0.02773,3.33227 0.02054,4.99635 0.04622,1.61888 0.03595,3.23674 0.235231,4.8576799 a 53.172508,53.172491 0 0 1 0.374931,7.99785 c -0.04725,1.66511 -0.01438,3.33227 0.02465,4.99841 0.02363,0.96249 0.137647,1.92191 0.196198,2.8844 0.01746,0.29892 -0.0339,0.60297 -0.01644,0.90189 0.08731,1.48329 0.205442,2.96453 0.27632,4.44782 0.04828,0.94709 0.03082,1.89828 0.07293,2.8464 0.0339,0.76835 0.140727,1.53362 0.162299,2.30198 a 6.4888864,6.4888847 0 0 1 -0.137646,1.3631 c -0.03493,0.18901 -0.205442,0.35131 -0.316381,0.52594 h -0.156123 c -0.102721,-0.23832 -0.271183,-0.47047 -0.298918,-0.71905 -0.06471,-0.59578 -0.07704,-1.19876 -0.08731,-1.79967 -0.01849,-1.03954 -0.01335,-2.07908 -0.02979,-3.11758 -0.01644,-1.07447 -0.05752,-2.14893 -0.07191,-3.22339 -0.02876,-2.16228 -0.0452,-4.32455 -0.07088,-6.48786 -0.02568,-2.23007 -0.04725,-4.46117 -0.08937,-6.69124 -0.01233,-0.63071 -0.102721,-1.25936 -0.137647,-1.8911 -0.0452,-0.86696 -0.05444,-1.73495 -0.102721,-2.60089 -0.02465,-0.41088 -0.153054,-0.81252 -0.170516,-1.22033 -0.05342,-1.3189299 -0.09861,-2.6388999 -0.107857,-3.9598899 z M 32.750587,22.106145 c 0.664605,-0.17359 0.707748,-0.20544 0.783761,-0.90394 0.04212,-0.38315 0.308163,-0.55572 0.773489,-0.48484 0.710829,0.10991 1.296339,-0.25681 1.915746,-0.49409 0.308163,-0.11916 0.616326,-0.24756 0.924489,-0.38829 a 7.7996061,7.7996045 0 0 0 0.899836,-0.47149 c 0.08526,-0.0544 0.0945,-0.22804 0.137646,-0.34719 l -0.112993,-0.151 c -0.472516,0.15819 -0.947087,0.30816 -1.417549,0.47662 -0.85053,0.29789 -1.63121,0.79095 -2.580352,0.80739 -0.75089,0.0133 -1.312774,-0.39959 -1.335372,-1.13815 -0.02979,-1.00358 -0.01335,-2.00819 -0.02671,-3.01178 0,-0.34001 -0.04109,-0.68001 -0.06574,-1.06213 a 1.458638,1.458638 0 0 0 0.346169,0.0329 1.0847336,1.0847336 0 0 0 0.410884,-0.14484 c 0.03698,-0.0257 0.01233,-0.24653 -0.04622,-0.28659 a 1.0754887,1.0754887 0 0 0 -0.46019,-0.17463 c -0.107857,-0.0144 -0.227013,0.0637 -0.344115,0.10272 -0.08423,-0.50744 0.198251,-0.6872 1.221352,-0.80122 -0.224959,-0.3965 -0.230095,-0.39753 -1.099114,-0.0976 -0.0062,-0.0113 -0.01952,-0.0277 -0.01644,-0.0349 0.379041,-0.71905 0.737537,-1.45761 1.154584,-2.15714 0.09348,-0.15716 0.386231,-0.2681 0.591673,-0.27324 0.62968,-0.0154 1.232652,0.0452 1.806862,0.42321 0.57421,0.37802 1.31791,0.55059 1.9291,0.90806 0.689257,0.40266 0.924488,1.09397 0.941951,1.88287 a 3.7811594,3.7811595 0 0 0 0.169489,1.01283 c 0.112993,0.37699 0.397531,0.49101 0.791979,0.35028 0.270156,-0.0966 0.513605,-0.27427 0.790952,-0.33898 0.229068,-0.0544 0.664605,-0.0637 0.695421,0.0216 a 1.3045565,1.3045565 0 0 1 0.02054,0.85669 c -0.251666,0.63071 -0.581401,1.23266 -0.889564,1.83871 -0.288646,0.5701 -0.275292,1.07446 0.160245,1.59731 0.09245,0.11094 -0.102721,0.52901 -0.249612,0.75397 -0.17668,0.27221 -0.440673,0.48793 -0.664605,0.73138 -0.506414,0.55161 -0.746781,1.24908 -0.980985,1.93012 -0.422183,1.23266 -0.711856,2.50742 -1.180263,3.71645 -0.29481,0.75705 -0.564966,1.57677 -1.350781,2.06366 -0.719047,0.44992 -1.423713,0.70159 -2.235209,0.23832 -0.343088,-0.1962 -0.726237,-0.32152 -1.073434,-0.51361 -0.796088,-0.44067 -0.791979,-1.2912 -1.013856,-2.02976 -0.426292,-1.42166 0.0565,-2.77347 0.318435,-4.13452 0.01952,-0.12224 0.216741,-0.26605 0.358496,-0.30509 z m -3.478133,14.71581 c -0.05341,0.0596 -0.177707,0.0555 -0.308163,0.0914 -0.41602,-0.14072 -0.872101,-0.25269 -1.290175,-0.44683 -0.682068,-0.31638 -1.335373,-0.70159 -2.007168,-1.02721 -0.571129,-0.27632 -0.601945,-0.41089 -0.402667,-0.99229 0.27632,-0.80738 0.812523,-1.55417 0.701585,-2.4653 -0.0678,-0.55469 -0.199279,-1.10117 -0.300973,-1.65175 -0.178734,-0.97277 0.0082,-1.88288 0.470462,-2.74779 a 8.1971363,8.1971347 0 0 0 0.397531,-0.85669 c 0.31638,-0.80534 0.804305,-1.46994 1.589093,-1.86336 0.753972,-0.37802 1.335373,-0.95428 1.89623,-1.55725 0.08731,-0.0935 0.243448,-0.12019 0.367741,-0.17874 a 1.5675221,1.5675222 0 0 1 0.02465,0.41808 c -0.131483,0.61632 -0.275292,1.22649 -0.426292,1.83665 -0.115048,0.46635 -0.238313,0.93271 -0.373905,1.39392 -0.551611,1.88082 -0.697475,3.80684 -0.605026,5.75238 0.01541,0.32562 0.185925,0.64611 0.292755,0.9666 0.205442,0.63276 0.474571,1.2532 0.624543,1.90034 0.137646,0.59578 -0.284537,1.02207 -0.650224,1.42782 z m 16.338799,5.66609 c -0.577292,-0.35233 -1.118631,-0.60194 -1.561359,-0.97071 -0.7437,-0.61633 -1.620937,-0.95839 -2.485847,-1.31175 -1.062135,-0.43554 -2.150978,-0.81252 -3.249065,-1.14534 a 3.3671938,3.3671939 0 0 0 -1.375433,-0.0791 c -1.02721,0.13456 -1.989706,0.12121 -2.954256,-0.40267 -0.69953,-0.38007 -1.522325,-0.5362 -2.291705,-0.78479 -0.76938,-0.24858 -1.105278,-0.71904 -1.110414,-1.51205 a 5.3825814,5.3825797 0 0 0 -0.803278,-2.84024 3.1432621,3.1432622 0 0 1 -0.464299,-1.72673 16.009065,16.009066 0 0 1 0.400612,-3.56134 c 0.326653,-1.38982 0.569074,-2.80018 0.935788,-4.17869 0.147918,-0.55572 0.237286,-1.19567 0.772462,-1.58601 0.116075,-0.0842 0.238313,-0.16128 0.357469,-0.2414 l 0.139701,0.0688 c -0.07601,0.6759 -0.124293,1.35694 -0.233177,2.02771 -0.157163,0.97379 -0.224959,1.94451 0.0113,2.91008 0.241395,0.98099 0.860802,1.73599 1.578822,2.4047 a 1.3939238,1.3939238 0 0 0 0.710829,0.30816 c 0.956332,0.1469 1.99176,0.32666 2.773467,-0.35027 0.519768,-0.453 0.87621,-1.15972 1.145339,-1.81817 0.533121,-1.30352 0.954277,-2.65328 1.425766,-3.98352 a 1.2644953,1.2644953 0 0 1 0.133537,-0.25577 c 0.494088,-0.76938 0.96455,-1.55622 1.495618,-2.29992 a 6.2598186,6.2598169 0 0 1 1.049808,-1.09398 c 0.117102,-0.10272 0.449918,-0.0873 0.581401,0.0103 0.205442,0.15305 0.107857,0.35952 -0.07807,0.55264 -0.458136,0.47354 -0.930652,0.94709 -1.303529,1.48637 a 3.1453165,3.1453166 0 0 0 -0.513605,1.29223 c -0.164354,1.14123 -0.263993,2.29376 -0.345143,3.44526 a 6.1468255,6.1468238 0 0 0 0.534149,2.85565 c 0.235232,0.54134 0.84334,0.93168 1.314829,1.35489 0.194143,0.1736 0.410884,0.27529 0.449918,0.58653 0.183871,1.33538 0.420129,2.65945 0.944006,3.90854 0.288646,0.68823 0.645088,1.34872 0.966604,2.02257 0.472517,0.99023 0.874156,1.99074 0.848476,3.1258 -0.01027,0.4643 0.13251,0.93168 0.198251,1.39804 a 3.0672485,3.0672486 0 0 1 10e-4,0.38417 z m 0.448891,9.58798 c 0.369796,0.43245 0.625571,0.87929 0.674877,1.47302 -0.992285,-0.6379 -1.212108,-1.1022 -0.674877,-1.47302 z m 0.757054,-8.46113 -0.161272,-0.0616 c -0.111966,-0.41089 -0.262966,-0.82177 -0.32768,-1.2419 a 16.030636,16.030637 0 0 1 -0.205442,-2.00511 c -0.03287,-1.29839 -0.465326,-2.45709 -1.104251,-3.56237 -0.381095,-0.65946 -0.81355,-1.30352 -1.085761,-2.00716 -0.336924,-0.87005 -0.730346,-1.73496 -0.538257,-2.74882 0.157163,-0.83101 0.09553,-1.70106 0.205441,-2.5444 0.07191,-0.55161 0.266048,-1.08884 0.425265,-1.6271 0.123266,-0.4191 0.279401,-0.82176 0.418075,-1.24087 a 0.68412194,0.68412177 0 0 0 0.0339,-0.37595 c -1.287094,1.11246 -1.521298,2.73032 -2.021549,4.24134 -0.550585,-0.0216 -0.777598,-0.45402 -0.924489,-0.79814 a 7.5386949,7.5386932 0 0 1 -0.464299,-1.82535 23.761417,23.761418 0 0 1 -0.21366,-2.59062 c -0.02773,-0.92963 0.05855,-1.8952 0.583456,-2.66458 0.492033,-0.71905 1.161774,-1.33538 1.833569,-1.90137 0.196197,-0.16641 0.69234,-0.076 1.010775,0.0236 0.719047,0.22393 1.40625,0.53004 2.107834,0.79916 a 1.3466721,1.3466721 0 0 0 0.354388,0.10273 c 0.627625,0.0524 1.058026,0.45402 1.438093,0.87723 0.158191,0.17463 0.184898,0.51361 0.191061,0.77452 0.04212,1.74626 0.04212,3.49251 0.09553,5.24493 0.06882,2.30917 0.189007,4.61628 0.254748,6.92545 0.0226,0.78684 -0.05547,1.57677 -0.08218,2.36258 -0.02363,0.69132 -0.03184,1.38468 -0.06369,2.07702 a 3.0436227,3.0436228 0 0 1 -0.108884,0.64817 6.9583213,6.9583196 0 0 1 -1.376461,2.71492 c -0.09348,0.13045 -0.179762,0.27118 -0.274265,0.40369 z m 4.97375,10.0533 c -0.659469,0.53107 -1.274768,1.11864 -1.951699,1.62813 -0.243449,0.18387 -0.598863,0.24037 -0.913189,0.29276 -0.07704,0.0134 -0.271184,-0.21161 -0.280429,-0.33796 -0.02876,-0.36055 -0.218795,-0.42321 -0.525931,-0.41088 -0.170517,0.005 -0.427319,0 -0.498197,-0.10272 a 2.6553374,2.6553375 0 0 1 -0.33487,-0.8115 c -0.02363,-0.0842 0.07601,-0.23831 0.160244,-0.30816 0.813551,-0.7098 1.103224,-1.60758 1.011802,-2.66458 -0.05033,-0.57216 0.06266,-0.68104 0.633789,-0.6944 0.219823,0 0.440673,0.0185 0.736509,0.0318 0.774516,-0.22291 1.232652,0.28556 1.618883,0.91627 0.236258,0.38418 0.488952,0.76116 0.686176,1.16486 0.250639,0.50127 0.08937,0.94708 -0.343088,1.29633 z"
     id="path48"
     inkscape:connector-curvature="0"
     style="stroke-width:0.10272098" />
  <path
     d="m 35.572332,17.197115 c -0.465326,0.0606 -0.898808,0.0401 -1.357971,0.10272 -0.410884,0.0534 -0.845394,0.18901 -1.262441,0.24448 0.01541,-0.36569 0.373904,-0.43554 0.647142,-0.55367 0.61119,-0.26605 1.658944,-0.14484 1.97327,0.20647 z"
     id="path50"
     inkscape:connector-curvature="0"
     style="stroke-width:0.10272098" />
  <path
     d="m 35.215891,13.146825 c -0.02671,-0.33898 0.18387,-0.55264 0.5927,-0.6379 0.72521,-0.15305 1.571631,0.20544 1.739066,0.86183 -0.773489,-0.54853 -1.527461,-0.81766 -2.331766,-0.22393 z"
     id="path52"
     inkscape:connector-curvature="0"
     style="stroke-width:0.10272098" />
  <path
     d="m 36.140379,14.486305 a 0.49819676,0.49819678 0 0 1 -0.468407,-0.14484 0.17668009,0.1766801 0 0 1 -0.05855,-0.12018 c 0.0072,-0.1397 0.174626,-0.36877 0.294809,-0.38418 a 2.5803511,2.5803512 0 0 1 0.841285,0.0822 c 0.08115,0.0185 0.159217,0.17052 0.182843,0.27324 0.0082,0.038 -0.138673,0.1397 -0.229068,0.16538 -0.173598,0.0493 -0.351305,0.0853 -0.562911,0.1284 z"
     id="path54"
     inkscape:connector-curvature="0"
     style="stroke-width:0.10272098" />
  <path
     d="m 34.363306,16.251055 a 0.20544196,0.20544197 0 0 1 -0.331788,-0.0134 c -0.0791,-0.11607 -0.13251,-0.19722 -0.111966,-0.24653 a 1.355917,1.355917 0 0 1 0.251666,-0.35438 0.20544196,0.20544197 0 0 1 0.280428,-0.0267 c 0.112994,0.0863 0.222905,0.17154 0.205442,0.20544 a 1.9208823,1.9208824 0 0 1 -0.293782,0.43554 z"
     id="path56"
     inkscape:connector-curvature="0"
     style="stroke-width:0.10272098" />
  <path
     class="cls-5"
     d="m 11.842758,39.106475 c -0.231123,0.28967 -0.682068,0.33589 -1.015911,0.1736 -0.333843,-0.1623 -0.562911,-0.4869 -0.704666,-0.82999 -0.141755,-0.34309 -0.205442,-0.71186 -0.308163,-1.0683 a 5.5582342,5.5582325 0 0 0 -0.7056935,-1.52849 c -0.558802,-0.84436 -1.342563,-1.52951 -1.848978,-2.40675 a 7.9095175,7.9095159 0 0 1 -0.395475,-0.81252 2.134542,2.1345421 0 0 1 -0.180789,-0.54648 c -0.04314,-0.30302 0.04109,-0.60708 0.124293,-0.90189 0.05958,-0.20544 0.03801,-0.43451 0.0832,-0.64611 0.123265,-0.58346 0.252693,-1.17924 0.555719,-1.69387 0.303027,-0.51463 0.821768,-0.94093 1.415496,-0.97893 a 0.86182923,0.86182907 0 0 1 0.9121625,0.58551 2.0441475,2.0441476 0 0 1 0.126347,0.7591 0.18181614,0.18181615 0 0 1 -0.218796,0.20545 l -0.7765715,0.0832 a 1.1186315,1.1186315 0 0 0 -0.340006,0.074 0.56804722,0.56804705 0 0 0 -0.299945,0.65331 c 0.157163,-0.0565 0.357469,-0.11197 0.513605,-0.16847 a 1.6229915,1.6229916 0 0 1 0.468407,-0.11607 1.3025021,1.3025021 0 0 1 0.5629115,0.13045 2.3492288,2.3492289 0 0 1 0.924489,0.66255 c 0.156136,0.19415 0.270156,0.42013 0.426292,0.61633 0.102721,0.12532 0.214687,0.23626 0.308163,0.36466 a 2.800174,2.8001741 0 0 1 0.27632,0.50539 l 0.234203,0.50436 c 0.444782,0.96044 0.524905,1.9897 0.583456,3.04567 a 3.779105,3.7791051 0 0 1 -0.0062,0.71905 c -0.0452,0.33076 -0.178735,0.64612 -0.216742,0.97893 -0.01952,0.17155 -0.01438,0.34514 -0.03595,0.51361 a 2.2598616,2.2598617 0 0 1 -0.461217,1.12274 z"
     id="path58"
     inkscape:connector-curvature="0"
     style="fill:#314b40;stroke-width:0.10272098" />
  <path
     class="cls-5"
     d="m 12.689178,39.863525 a 0.81149595,0.81149579 0 0 1 -0.128401,-0.67385 c 0.02876,-0.10272 0.0791,-0.20544 0.116075,-0.30816 0.159217,-0.44992 0.06882,-0.96455 0.254748,-1.40522 a 0.22701337,0.22701338 0 0 1 0.07601,-0.10273 0.24242152,0.24242153 0 0 1 0.205442,0.008 4.7713896,4.7713898 0 0 1 0.987148,0.42938 c 0.205442,0.13045 0.396503,0.29172 0.597837,0.43348 0.582428,0.41088 1.282985,0.65125 1.799671,1.1402 0.144837,0.13662 0.272211,0.28967 0.410884,0.43246 a 8.1149595,8.1149579 0 0 0 0.847448,0.7324 l 0.848475,0.66768 c 0.146891,0.11608 0.287619,0.24962 0.437592,0.35953 0.602972,0.43964 1.21108,0.88442 1.705168,1.44425 0.162299,0.18593 0.308163,0.38213 0.481762,0.56189 0.916271,0.96968 2.288623,1.32304 3.455533,1.96813 0.43451,0.24037 0.84334,0.52388 1.258333,0.79609 a 28.59444,28.594441 0 0 0 2.876187,1.65483 c 1.10836,0.55264 2.244454,1.06933 3.37233,1.58191 0.308163,0.14175 0.616326,0.28248 0.916271,0.44889 a 8.2238437,8.2238421 0 0 1 0.846421,0.55572 12.818552,12.818552 0 0 1 2.62144,2.59165 1.3908421,1.3908421 0 0 1 0.249612,0.43862 0.5136051,0.51360493 0 0 1 -0.08115,0.47868 c -0.112993,0.12634 -0.292755,0.1623 -0.459163,0.19106 -1.56444,0.27221 -3.216194,0.53723 -4.703594,-0.0175 -0.5927,-0.22085 -1.12993,-0.56394 -1.710304,-0.82177 -0.287619,-0.1284 -0.584482,-0.23626 -0.863883,-0.38315 a 6.1488799,6.1488782 0 0 1 -0.726238,-0.46738 31.535342,31.535343 0 0 1 -3.056976,-2.51256 14.50523,14.50523 0 0 0 -2.619385,-1.92807 c -0.205442,-0.11916 -0.410884,-0.23318 -0.616326,-0.36774 a 7.2315591,7.2315574 0 0 1 -0.769381,-0.63687 6.0862201,6.0862184 0 0 0 -0.835121,-0.6718 c -0.333843,-0.20544 -0.707748,-0.35336 -1.033373,-0.57523 a 9.5735975,9.5735959 0 0 1 -0.753972,-0.63071 c -0.481762,-0.41088 -1.02721,-0.72624 -1.576767,-1.04365 -0.862857,-0.5023 -1.528488,-1.31996 -2.226991,-2.03284 -0.488952,-0.49923 -0.93887,-1.03954 -1.459665,-1.50487 a 5.7462137,5.746212 0 0 1 -0.7437,-0.83101 z"
     id="path60"
     inkscape:connector-curvature="0"
     style="fill:#314b40;stroke-width:0.10272098" />
  <path
     class="cls-5"
     d="m 10.583398,29.456865 c -0.285564,-0.71905 -0.533122,-1.52849 -0.277346,-2.25986 a 0.87621017,0.87621001 0 0 1 0.242421,-0.38829 1.1730737,1.1730737 0 0 1 0.363632,-0.18284 3.6702207,3.6702208 0 0 1 0.558803,-0.16538 2.1653583,2.1653584 0 0 1 1.411386,0.2681 3.759588,3.7595881 0 0 1 1.091924,0.96147 c 0.16949,0.21057 0.324598,0.43245 0.513605,0.62968 0.130455,0.1397 0.275292,0.26604 0.398557,0.41088 a 6.28139,6.2813883 0 0 1 0.43451,0.64612 4.8278861,4.8278863 0 0 0 0.700557,0.84847 c 0.427319,0.41088 0.948115,0.76938 1.172047,1.31894 0.410884,1.01488 1.690787,1.359 2.539262,2.05442 a 7.0702872,7.0702855 0 0 0 1.02721,0.74062 6.8915526,6.8915509 0 0 0 0.62968,0.29686 16.411731,16.411732 0 0 0 2.527963,0.89059 c 0.55983,0.13662 1.139176,0.27324 1.662026,0.51361 0.410884,0.189 0.778625,0.4458 1.182318,0.64097 0.330762,0.16128 0.680013,0.27941 1.02721,0.41089 0.500252,0.20544 0.985095,0.43759 1.488427,0.62968 1.3477,0.5136 2.813528,0.68926 4.130411,1.27682 0.468408,0.20544 0.919353,0.47046 1.415495,0.59886 1.087816,0.28146 2.267053,-0.10272 3.349732,0.19312 0.432454,0.11813 0.851556,0.31535 1.282984,0.43348 0.50436,0.13765 0.997421,0.30816 1.490481,0.48279 0.259885,0.0904 0.519769,0.18182 0.773489,0.2907 a 11.880709,11.880709 0 0 1 1.062135,0.54339 c 0.719047,0.40164 1.445285,0.80431 2.157141,1.23266 a 3.5572276,3.5572277 0 0 1 0.578319,0.41088 c 0.47868,0.43656 0.707748,1.09501 0.755,1.74112 0.04725,0.64612 -0.07191,1.29326 -0.18798,1.93013 -0.116075,0.63687 -0.281455,1.19464 -0.410884,1.81302 a 3.6691935,3.6691936 0 0 1 -0.683094,1.472 4.6604509,4.6604511 0 0 1 -0.47149,0.5136 c -0.650224,0.61633 -1.427821,1.07549 -2.198229,1.53054 l -0.800196,0.47355 a 6.9357227,6.935721 0 0 1 -0.750891,0.40266 4.7251652,4.7251654 0 0 1 -1.467883,0.34104 2.8463984,2.8463985 0 0 1 -1.11863,-0.0791 c -0.358496,-0.11505 -0.689258,-0.36363 -0.821768,-0.71391 -0.457108,-1.1628 -1.817134,-1.73907 -2.841262,-2.45503 -0.535177,-0.37493 -1.073435,-0.75089 -1.665108,-1.02721 -0.297891,-0.14073 -0.607081,-0.25475 -0.912162,-0.37904 a 14.627468,14.627468 0 0 1 -2.762167,-1.49151 c -0.492034,-0.33795 -1.065217,-0.64509 -1.576767,-0.9512 -0.359524,-0.21468 -0.719047,-0.4304 -1.093979,-0.61632 -0.284537,-0.14278 -0.577292,-0.26913 -0.866965,-0.40164 a 12.814443,12.814443 0 0 1 -2.157141,-1.19978 c -1.252169,-0.8947 -2.259861,-2.12119 -3.595234,-2.89468 -0.72521,-0.42013 -1.289149,-1.09706 -1.910611,-1.65997 a 9.0558837,9.0558821 0 0 0 -1.643535,-1.15664 c -0.273238,-0.15408 -0.551612,-0.29994 -0.807387,-0.47971 -0.170517,-0.11915 -0.331789,-0.25372 -0.513605,-0.35849 -0.225986,-0.13046 -0.476626,-0.21058 -0.719047,-0.31844 a 6.2772811,6.2772794 0 0 1 -0.87621,-0.51874 c -0.240367,-0.70775 -0.115048,-1.51102 -0.233177,-2.24959 a 5.7133429,5.7133412 0 0 0 -0.205442,-0.81355 8.2639049,8.2639033 0 0 0 -0.778625,-1.78221 c -0.502305,-0.81252 -1.274767,-1.5213 -1.61991,-2.39853 z"
     id="path62"
     inkscape:connector-curvature="0"
     style="fill:#314b40;stroke-width:0.10272098" />
  <path
     class="cls-6"
     d="m 18.889417,58.730285 a 0.23625826,0.23625827 0 0 0 0.04006,0.12122 0.22701337,0.22701338 0 0 0 0.0678,0.0524 0.59783631,0.59783614 0 0 0 0.686176,-0.0935 1.1299308,1.1299308 0 0 0 0.139701,-0.17977 c 0.215714,-0.31638 0.436564,-0.64508 0.497169,-1.0272 a 0.36876833,0.36876834 0 0 0 0,-0.15717 0.14894543,0.14894543 0 0 0 -0.102721,-0.10888 0.20544196,0.20544197 0 0 0 -0.126346,0.0205 0.38109485,0.38109486 0 0 0 -0.102721,0.0534 0.68720357,0.6872034 0 0 0 -0.14381,0.24653 c -0.120183,0.24242 -0.381095,0.37904 -0.635843,0.4684 -0.102721,0.038 -0.223931,0.0729 -0.271183,0.18079 a 0.84128503,0.84128487 0 0 0 -0.04828,0.42321 z"
     id="path64"
     inkscape:connector-curvature="0"
     style="fill:#b49a8d;stroke-width:0.10272098" />
  <path
     class="cls-6"
     d="m 19.918681,59.257245 a 0.28864596,0.28864597 0 0 0 0.25783,0.0175 0.54236698,0.54236681 0 0 0 0.211605,-0.16128 c 0.215714,-0.24755 0.299946,-0.58037 0.376986,-0.89881 a 0.97687674,0.97687658 0 0 0 0.03698,-0.42012 c -0.01335,-0.0678 -0.05341,-0.14279 -0.122238,-0.15203 -0.06882,-0.009 -0.130456,0.0544 -0.173599,0.11299 a 7.3733141,7.3733124 0 0 0 -0.527985,0.76425 c -0.119157,0.20647 -0.33898,0.55264 -0.05958,0.73753 z"
     id="path66"
     inkscape:connector-curvature="0"
     style="fill:#b49a8d;stroke-width:0.10272098" />
  <path
     class="cls-6"
     d="m 20.591504,59.372295 a 0.17154404,0.17154405 0 0 0 0.102721,0.12121 0.25577524,0.25577525 0 0 0 0.211605,-0.0699 0.87723738,0.87723722 0 0 0 0.224959,-0.20544 0.83101294,0.83101278 0 0 0 0.08526,-0.18695 3.0919016,3.0919017 0 0 0 0.156136,-0.7776 0.66871379,0.66871362 0 0 0 -0.03184,-0.30816 0.23214942,0.23214943 0 0 0 -0.146891,-0.14073 0.23625826,0.23625827 0 0 0 -0.205442,0.0678 0.57729211,0.57729194 0 0 0 -0.15819,0.36261 c -0.01438,0.13456 0,0.27016 -0.01952,0.40472 a 1.1833458,1.1833458 0 0 1 -0.117102,0.41088 c -0.05855,0.11711 -0.138674,0.18182 -0.101694,0.32152 z"
     id="path68"
     inkscape:connector-curvature="0"
     style="fill:#b49a8d;stroke-width:0.10272098" />
  <path
     class="cls-6"
     d="m 21.750197,59.249035 a 0.4180744,0.41807441 0 0 0 0.214686,-0.29276 c 0.02979,-0.12224 0.03082,-0.24961 0.05444,-0.37288 0.05136,-0.26502 0.211605,-0.52182 0.157163,-0.78581 a 0.10272099,0.10272099 0 0 0 -0.03492,-0.0678 0.10272099,0.10272099 0 0 0 -0.114021,0.0226 c -0.181816,0.13251 -0.282482,0.34617 -0.373904,0.55161 l -0.15819,0.34925 c -0.05958,0.13354 -0.129429,0.3133 -0.09348,0.46328 0.03595,0.14997 0.233177,0.18181 0.348226,0.13251 z"
     id="path70"
     inkscape:connector-curvature="0"
     style="fill:#b49a8d;stroke-width:0.10272098" />
  <path
     class="cls-6"
     d="m 18.481615,57.698975 a 0.21365964,0.21365965 0 0 1 -0.06882,-0.076 c -0.154082,-0.25475 -0.09245,-0.59681 0.07601,-0.84231 0.168463,-0.2455 0.424238,-0.41088 0.678986,-0.57216 0.254748,-0.16127 0.513605,-0.30816 0.719047,-0.53004 0.07499,-0.0853 0.1397,-0.17873 0.219823,-0.25988 a 1.4791822,1.4791822 0 0 1 0.648169,-0.34103 3.715418,3.7154181 0 0 1 3.012807,0.43759 0.65125122,0.65125105 0 0 1 0.152027,0.12326 c 0.123265,0.14689 0.107857,0.36261 0.07293,0.55161 a 0.86799249,0.86799233 0 0 1 -0.131483,0.35953 0.89367274,0.89367258 0 0 1 -0.199279,0.18387 c -0.418074,0.30816 -0.924489,0.53004 -1.438094,0.491 -0.576264,-0.0452 -1.089869,-0.41088 -1.665107,-0.46121 a 2.2598616,2.2598617 0 0 0 -0.988176,0.17154 1.6435357,1.6435358 0 0 0 -0.616326,0.37082 c -0.101693,0.10992 -0.252693,0.52491 -0.472516,0.39343 z"
     id="path72"
     inkscape:connector-curvature="0"
     style="fill:#b49a8d;stroke-width:0.10272098" />
  <path
     class="cls-7"
     d="m 18.422037,55.401105 a 1.9866238,1.9866239 0 0 0 0.198251,0.56804 0.12840123,0.12840123 0 0 0 0.04622,0.0575 0.13661891,0.13661891 0 0 0 0.06369,0.0134 c 0.17668,0.008 0.369795,0 0.501278,-0.11813 0.131483,-0.11813 0.164354,-0.35747 0.102721,-0.54545 a 2.6296571,2.6296572 0 0 0 -0.273238,-0.5136 2.5741878,2.5741879 0 0 1 -0.253721,-0.61633 5.136051,5.1360493 0 0 1 -0.129428,-0.98715 l -0.06266,-0.95016 a 6.3296689,6.3296672 0 0 1 0.0092,-1.38777 4.8679473,4.8679475 0 0 1 0.12532,-0.64919 c 0.06369,-0.21161 0.130455,-0.42116 0.205442,-0.63071 a 3.3897924,3.3897925 0 0 1 0.284537,-0.67693 3.0590309,3.059031 0 0 1 0.439645,-0.54339 1.9948414,1.9948415 0 0 0 0.272211,-0.32666 0.58859142,0.58859125 0 0 0 0.09758,-0.41088 0.35438739,0.3543874 0 0 0 -0.274265,-0.29276 0.47662535,0.47662537 0 0 0 -0.205442,0.0247 1.5141073,1.5141073 0 0 0 -0.675904,0.45813 3.1278539,3.127854 0 0 0 -0.445809,0.6944 6.9213417,6.92134 0 0 0 -0.664605,2.18282 12.602838,12.602838 0 0 0 -0.06163,1.89931 c 0.0072,0.30816 0.09245,0.60605 0.145863,0.90908 0.02568,0.14895 0.05136,0.29892 0.0832,0.44684 0.102721,0.47149 0.388286,0.92757 0.47149,1.39495 z"
     id="path74"
     inkscape:connector-curvature="0"
     style="fill:#976b64;stroke-width:0.10272098" />
  <path
     class="cls-8"
     d="m 21.576598,54.483805 a 0.48381582,0.48381584 0 0 1 -0.163326,0 0.38212206,0.38212207 0 0 1 -0.180789,-0.1171 0.99125767,0.99125751 0 0 1 -0.252694,-0.59681 2.0194945,2.0194946 0 0 1 0.06471,-0.65536 4.9573146,4.9573148 0 0 1 0.697476,-1.5665 2.4170247,2.4170248 0 0 1 0.4417,-0.52593 1.106305,1.106305 0 0 1 0.616326,-0.27324 0.57523769,0.57523752 0 0 1 0.250639,0.0318 0.8895639,0.88956374 0 0 1 0.262966,0.19209 9.0938905,9.0938889 0 0 0 1.820216,1.30044 0.64714238,0.64714221 0 0 1 0.308163,0.25886 0.52182278,0.52182261 0 0 1 0.02363,0.28659 3.5623637,3.5623638 0 0 1 -0.252694,0.76835 3.1658607,3.1658608 0 0 0 -0.205442,0.72727 1.9332089,1.933209 0 0 1 -0.09039,0.4869 c -0.06369,0.15305 -0.205442,0.28864 -0.374932,0.27529 a 0.58961863,0.58961846 0 0 1 -0.175653,-0.0534 9.125734,9.1257324 0 0 0 -1.430903,-0.46532 5.8550979,5.8550962 0 0 0 -0.738564,-0.14176 c -0.203388,-0.0246 -0.418075,0.0473 -0.620435,0.0678 z"
     id="path76"
     inkscape:connector-curvature="0"
     style="fill:#7b7985;stroke-width:0.10272098" />
  <path
     class="cls-7"
     d="m 51.864907,50.029825 a 4.6481245,4.6481246 0 0 1 -0.01746,-1.81406 c 0.08937,-0.47149 0.251667,-0.93168 0.278374,-1.41138 0.02979,-0.52491 -0.102721,-1.0457 -0.274265,-1.54082 a 11.741009,11.741009 0 0 0 -0.470462,-1.17615 c -0.153054,-0.32974 -0.325625,-0.6985 -0.205442,-1.04159 a 0.10272099,0.10272099 0 0 1 0.0565,-0.074 0.12634681,0.12634681 0 0 1 0.07704,0.009 1.3189375,1.3189375 0 0 1 0.991258,0.92449 3.2264661,3.2264662 0 0 1 0.191061,0.51361 c 0.05444,0.2116 0.0678,0.43553 0.153054,0.63789 a 4.3831044,4.3831045 0 0 0 0.237286,0.41602 c 0.352333,0.63482 0.252693,1.41036 0.196197,2.13455 -0.03903,0.5136 -0.05239,1.02721 -0.17668,1.52438 a 2.4961199,2.49612 0 0 1 -0.429374,0.92448 c -0.07807,0.10273 -0.232149,0.31638 -0.365687,0.34104 -0.16538,0.0318 -0.216741,-0.24859 -0.241394,-0.36774 z"
     id="path78"
     inkscape:connector-curvature="0"
     style="fill:#976b64;stroke-width:0.10272098" />
  <path
     class="cls-8"
     d="m 47.664646,48.361635 a 2.4581131,2.4581132 0 0 1 -0.130456,-0.55264 c -0.02671,-0.33179 0.08115,-0.65844 0.193116,-0.97174 q 0.0832,-0.23215 0.169489,-0.46327 a 0.56085675,0.56085658 0 0 1 0.115048,-0.20545 0.42423766,0.42423767 0 0 1 0.187979,-0.10272 c 0.289673,-0.0822 0.597836,0 0.888537,0.0781 l 1.073434,0.29687 c 0.148945,0.0411 0.308163,0.0883 0.403694,0.20544 a 0.61632609,0.61632592 0 0 1 0.09039,0.18284 3.9033974,3.9033975 0 0 1 0.143809,0.69645 l 0.07396,0.51977 a 2.1848753,2.1848754 0 0 1 0.03287,0.38315 1.97327,1.9732701 0 0 1 -0.102721,0.5136 0.60399957,0.6039994 0 0 1 -0.07601,0.18182 0.53004046,0.53004029 0 0 1 -0.308163,0.18387 2.6707455,2.6707456 0 0 1 -0.525932,0.0729 11.569465,11.569465 0 0 1 -1.307638,0.008 c -0.308163,-0.0154 -0.56702,0.0452 -0.690285,-0.30097 -0.08218,-0.23729 -0.154081,-0.47971 -0.231122,-0.72624 z"
     id="path80"
     inkscape:connector-curvature="0"
     style="fill:#7b7985;stroke-width:0.10272098" />
  <path
     class="cls-7"
     d="m 47.236299,48.071955 a 3.5952344,3.5952345 0 0 0 0.160245,1.39906 c 0.05136,0.14998 0.117102,0.29481 0.182843,0.43862 l 0.384177,0.84745 a 2.6173306,2.6173307 0 0 1 0.166408,0.43143 1.3025021,1.3025021 0 0 1 -0.676931,1.48534 c -0.114021,0.0575 -0.258857,0.0955 -0.363633,0.0226 a 0.46840768,0.4684077 0 0 1 -0.140727,-0.24139 3.3641122,3.3641123 0 0 1 -0.159218,-0.61633 c -0.07807,-0.48689 -0.308163,-0.94606 -0.452999,-1.41755 a 3.8920981,3.8920982 0 0 1 -0.133538,-0.5023 c -0.05958,-0.3472 -0.02671,-0.70159 -0.01233,-1.05495 a 9.2695434,9.2695418 0 0 1 0.191061,-1.49356 7.3373617,7.33736 0 0 0 0.13251,-1.13918 7.3157903,7.3157886 0 0 1 0.05239,-0.88853 3.8222478,3.8222479 0 0 1 0.373904,-1.03851 3.0169153,3.0169154 0 0 1 0.428346,-0.68618 c 0.131483,-0.14689 0.288646,-0.27118 0.410884,-0.42732 0.19517,-0.25269 0.289674,-0.57626 0.558803,-0.77554 a 0.52182278,0.52182261 0 0 1 0.376986,-0.10786 c 0.289673,0.0411 0.388285,0.32871 0.402666,0.58243 a 0.96146859,0.96146843 0 0 1 -0.05033,0.40472 1.4237129,1.4237129 0 0 1 -0.193116,0.30816 12.61311,12.61311 0 0 0 -1.319965,2.24035 4.0061184,4.0061185 0 0 0 -0.278373,0.76424 c -0.10683,0.46019 -0.01233,0.99434 -0.04006,1.4648 z"
     id="path82"
     inkscape:connector-curvature="0"
     style="fill:#976b64;stroke-width:0.10272098" />
  <path
     class="cls-5"
     d="m 31.949363,32.909315 h 1.078571 v 0.0575 h -0.05444 a 0.38931253,0.38931254 0 0 0 -0.166408,0.0247 0.15202706,0.15202706 0 0 0 -0.06471,0.0698 0.77862523,0.77862507 0 0 0 -0.01849,0.2229 v 1.02002 a 1.0272099,1.0272099 0 0 0 0.04212,0.3698 0.34822413,0.34822414 0 0 0 0.138673,0.151 0.45608117,0.45608118 0 0 0 0.244476,0.0596 0.5136051,0.51360493 0 0 0 0.287619,-0.076 0.46943489,0.46943491 0 0 0 0.178735,-0.20544 1.287094,1.287094 0 0 0 0.05855,-0.46533 v -0.8495 a 0.48895187,0.48895189 0 0 0 -0.02876,-0.19928 0.17565288,0.17565289 0 0 0 -0.07396,-0.0832 0.43656418,0.43656419 0 0 0 -0.19517,-0.0349 v -0.0575 h 0.719047 v 0.0575 h -0.04006 a 0.27426502,0.27426503 0 0 0 -0.145863,0.0349 0.20544196,0.20544197 0 0 0 -0.08526,0.10272 0.53209488,0.53209471 0 0 0 -0.01952,0.17668 v 0.79095 a 2.0800999,2.0801 0 0 1 -0.04828,0.53004 0.59372747,0.5937273 0 0 1 -0.236258,0.29995 0.85463876,0.8546386 0 0 1 -0.513605,0.13661 0.96455022,0.96455006 0 0 1 -0.417047,-0.0729 0.6070812,0.60708103 0 0 1 -0.284537,-0.25166 0.8690197,0.86901954 0 0 1 -0.0832,-0.41089 v -1.02002 a 0.73137359,0.73137342 0 0 0 -0.01952,-0.22393 0.15305427,0.15305427 0 0 0 -0.06985,-0.0699 0.41601998,0.41601999 0 0 0 -0.180789,-0.0236 z"
     id="path84"
     inkscape:connector-curvature="0"
     style="fill:#314b40;stroke-width:0.10272098" />
  <path
     class="cls-5"
     d="m 34.541014,34.518955 a 0.25577524,0.25577525 0 0 1 0.255775,0.2568 0.24550315,0.24550316 0 0 1 -0.07499,0.18079 0.24961199,0.249612 0 0 1 -0.180789,0.074 0.25474804,0.25474805 0 0 1 -0.255776,-0.25475 0.25782966,0.25782967 0 0 1 0.255776,-0.2568 z"
     id="path86"
     inkscape:connector-curvature="0"
     style="fill:#314b40;stroke-width:0.10272098" />
  <path
     class="cls-5"
     d="m 36.411563,32.862065 0.01644,0.69439 h -0.06266 a 0.70980218,0.70980201 0 0 0 -0.218795,-0.42013 0.55161186,0.55161169 0 0 0 -0.376986,-0.15921 0.35644181,0.35644182 0 0 0 -0.248585,0.0832 0.25782966,0.25782967 0 0 0 -0.09142,0.19312 0.23523105,0.23523106 0 0 0 0.03287,0.12326 0.52079557,0.5207954 0 0 0 0.142782,0.14278 3.2870714,3.2870715 0 0 0 0.332816,0.17976 1.4658285,1.4658285 0 0 1 0.493061,0.33898 0.57523769,0.57523752 0 0 1 0.126347,0.36569 0.59372747,0.5937273 0 0 1 -0.205442,0.44992 0.7324008,0.73240063 0 0 1 -0.513605,0.18798 0.83204015,0.83203999 0 0 1 -0.185925,-0.0205 1.394951,1.394951 0 0 1 -0.219823,-0.075 0.33076156,0.33076157 0 0 0 -0.121211,-0.0308 0.15202706,0.15202706 0 0 0 -0.08526,0.0308 0.22085011,0.22085012 0 0 0 -0.0719,0.0935 h -0.0565 v -0.78581 h 0.0565 a 0.90189042,0.90189026 0 0 0 0.260911,0.50539 0.61016283,0.61016266 0 0 0 0.410884,0.17462 0.38828532,0.38828533 0 0 0 0.274265,-0.0935 0.28967317,0.28967318 0 0 0 0.102721,-0.21879 0.2824827,0.28248271 0 0 0 -0.03903,-0.14278 0.44991791,0.44991792 0 0 0 -0.119156,-0.13046 1.7000322,1.7000323 0 0 0 -0.282483,-0.1623 2.4180519,2.418052 0 0 1 -0.410884,-0.23831 0.73959127,0.7395911 0 0 1 -0.192088,-0.21982 0.54853023,0.54853006 0 0 1 -0.06677,-0.26708 0.57010164,0.57010147 0 0 1 0.182844,-0.42424 0.64200633,0.64200616 0 0 1 0.461217,-0.17462 0.77759802,0.77759786 0 0 1 0.196197,0.0247 0.99536651,0.99536635 0 0 1 0.175653,0.0678 0.41088393,0.41088394 0 0 0 0.145864,0.0503 0.08114958,0.08114958 0 0 0 0.06266,-0.0246 0.28145549,0.2814555 0 0 0 0.04314,-0.11813 z"
     id="path88"
     inkscape:connector-curvature="0"
     style="fill:#314b40;stroke-width:0.10272098" />
  <path
     class="cls-5"
     d="m 37.076168,34.518955 a 0.25680245,0.25680246 0 0 1 0.181816,0.43759 0.2506392,0.25063921 0 0 1 -0.181816,0.074 0.25680499,0.256805 0 0 1 0,-0.51361 z"
     id="path90"
     inkscape:connector-curvature="0"
     style="fill:#314b40;stroke-width:0.10272098" />
  <path
     class="cls-5"
     d="m 37.916425,32.966835 v -0.0575 h 1.107332 v 0.0575 h -0.06677 a 0.2927548,0.29275481 0 0 0 -0.147918,0.0319 0.14997264,0.14997264 0 0 0 -0.06163,0.074 0.63276144,0.63276127 0 0 0 -0.01644,0.19311 v 1.02002 a 1.1535567,1.1535567 0 0 1 -0.06061,0.43554 0.49408792,0.49408794 0 0 1 -0.212632,0.22701 0.69542124,0.69542107 0 0 1 -0.36774,0.0914 0.63481586,0.63481569 0 0 1 -0.424238,-0.13764 0.40061184,0.40061185 0 0 1 -0.162299,-0.30817 0.23831268,0.23831269 0 0 1 0.06574,-0.17462 0.22085011,0.22085012 0 0 1 0.161272,-0.0668 0.22393174,0.22393175 0 0 1 0.158191,0.0606 0.19311544,0.19311545 0 0 1 0.06369,0.14689 0.230095,0.23009501 0 0 1 -0.0113,0.075 0.65125122,0.65125105 0 0 1 -0.04828,0.0781 0.20544196,0.20544197 0 0 0 -0.04212,0.0883 0.08423121,0.08423121 0 0 0 0.04006,0.0688 0.24961199,0.249612 0 0 0 0.152027,0.0432 0.17051683,0.17051684 0 0 0 0.108884,-0.0339 0.18181614,0.18181615 0 0 0 0.06061,-0.10272 2.4057254,2.4057255 0 0 0 0.01746,-0.39753 v -1.1135 a 0.63584307,0.6358429 0 0 0 -0.01746,-0.19928 0.15408148,0.15408148 0 0 0 -0.06882,-0.0698 0.2722106,0.27221061 0 0 0 -0.138674,-0.0298 z"
     id="path92"
     inkscape:connector-curvature="0"
     style="fill:#314b40;stroke-width:0.10272098" />
  <path
     class="cls-5"
     d="m 39.435668,34.518955 a 0.25782966,0.25782967 0 0 1 0.256802,0.2568 0.25474804,0.25474805 0 0 1 -0.256802,0.25475 0.25680499,0.256805 0 0 1 0,-0.51361 z"
     id="path94"
     inkscape:connector-curvature="0"
     style="fill:#314b40;stroke-width:0.10272098" />
  <path
     class="cls-5"
     d="m 41.14289,34.399795 h -0.735482 l -0.08834,0.20544 a 0.46635326,0.46635328 0 0 0 -0.04211,0.16744 0.14072775,0.14072775 0 0 0 0.06985,0.12943 0.59783631,0.59783614 0 0 0 0.205442,0.037 v 0.0565 h -0.69234 v -0.0565 a 0.30816295,0.30816296 0 0 0 0.183871,-0.0935 1.2203253,1.2203253 0 0 0 0.178734,-0.31433 l 0.744728,-1.66202 h 0.02876 l 0.751918,1.70825 a 1.0456996,1.0456996 0 0 0 0.175653,0.30816 0.24242152,0.24242153 0 0 0 0.147918,0.0555 v 0.0565 h -1.007693 v -0.0565 h 0.04212 a 0.31638063,0.31638064 0 0 0 0.170517,-0.0339 0.08423121,0.08423121 0 0 0 0.03287,-0.0709 0.18078893,0.18078894 0 0 0 -0.0092,-0.0565 c 0,-0.009 -0.01746,-0.0483 -0.0452,-0.11608 z m -0.05239,-0.11402 -0.308163,-0.71905 -0.319462,0.71905 z"
     id="path96"
     inkscape:connector-curvature="0"
     style="fill:#314b40;stroke-width:0.10272098" />
</svg>
