<svg xmlns="http://www.w3.org/2000/svg" viewBox="0 0 605.22 913.98"><defs><style>.cls-1{fill:#c8c5c3;}.cls-2{fill:#c2a89f;}.cls-3{fill:#c2bec2;}.cls-4{fill:none;}.cls-5{fill:#314b40;}.cls-6{fill:#b49a8d;}.cls-7{fill:#976b64;}.cls-8{fill:#7b7985;}</style></defs><title>Gym_1</title><g id="Calque_2" data-name="Calque 2"><path class="cls-1" d="M990.23,443.07c-.74,6.58-1.21,13.21-2.27,19.74-1.53,9.48-2.19,18.93.11,28.33,2.35,9.55,8.38,16.9,15.37,23.41a13.57,13.57,0,0,0,6.92,3c9.31,1.43,19.39,3.18,27-3.41,5.06-4.41,8.53-11.29,11.15-17.7,5.19-12.69,9.29-25.83,13.88-38.78a12.31,12.31,0,0,1,1.3-2.49c4.81-7.49,9.39-15.15,14.56-22.39a60.94,60.94,0,0,1,10.22-10.65c1.14-1,4.38-.85,5.66.1,2,1.49,1.05,3.5-.76,5.38-4.46,4.61-9.06,9.22-12.69,14.47a30.62,30.62,0,0,0-5,12.58c-1.6,11.11-2.57,22.33-3.36,33.54a59.84,59.84,0,0,0,5.2,27.8c2.29,5.27,8.21,9.07,12.8,13.19,1.89,1.69,4,2.68,4.38,5.71,1.79,13,4.09,25.89,9.19,38.05,2.81,6.7,6.28,13.13,9.41,19.69,4.6,9.64,8.51,19.38,8.26,30.43-.1,4.52,1.29,9.07,1.93,13.61a29.86,29.86,0,0,1,0,3.73c-5.62-3.43-10.89-5.86-15.2-9.45-7.24-6-15.78-9.33-24.2-12.77-10.34-4.24-20.94-7.91-31.63-11.15a32.78,32.78,0,0,0-13.39-.77c-10,1.31-19.37,1.18-28.76-3.92-6.81-3.7-14.82-5.22-22.31-7.64s-10.76-7-10.81-14.72a52.4,52.4,0,0,0-7.82-27.65,30.6,30.6,0,0,1-4.52-16.81,155.85,155.85,0,0,1,3.9-34.67c3.18-13.53,5.54-27.26,9.11-40.68,1.44-5.41,2.31-11.64,7.52-15.44,1.13-.82,2.32-1.57,3.48-2.35Z" transform="translate(-699.76 -77.87)"/><path class="cls-2" d="M1133.67,650.79c-1.09-4-2.56-8-3.19-12.09a156.06,156.06,0,0,1-2-19.52c-.32-12.64-4.53-23.92-10.75-34.68-3.71-6.42-7.92-12.69-10.57-19.54-3.28-8.47-7.11-16.89-5.24-26.76,1.53-8.09.93-16.56,2-24.77.7-5.37,2.59-10.6,4.14-15.84,1.2-4.08,2.72-8,4.07-12.08a6.66,6.66,0,0,0,.33-3.66c-12.53,10.83-14.81,26.58-19.68,41.29-5.36-.21-7.57-4.42-9-7.77a73.39,73.39,0,0,1-4.52-17.77,231.32,231.32,0,0,1-2.08-25.22c-.27-9.05.57-18.45,5.68-25.94,4.79-7,11.31-13,17.85-18.51,1.91-1.62,6.74-.74,9.84.23,7,2.18,13.69,5.16,20.52,7.78a13.11,13.11,0,0,0,3.45,1c6.11.51,10.3,4.42,14,8.54,1.54,1.7,1.8,5,1.86,7.54.41,17,.41,34,.93,51.06.67,22.48,1.84,44.94,2.48,67.42.22,7.66-.54,15.35-.8,23-.23,6.73-.31,13.48-.62,20.22a29.63,29.63,0,0,1-1.06,6.31,67.74,67.74,0,0,1-13.4,26.43c-1,1.21-1.84,2.58-2.76,3.87Z" transform="translate(-699.76 -77.87)"/><path class="cls-2" d="M1050.06,410.47c-4.6,1.54-9.22,3-13.8,4.64-8.28,2.9-15.88,7.7-25.12,7.86-7.31.13-12.78-3.89-13-11.08-.29-9.77-.13-19.55-.26-29.32,0-3.31-.4-6.62-.64-10.34a14.2,14.2,0,0,0,3.37.32,10.56,10.56,0,0,0,4-1.41c.36-.25.12-2.4-.45-2.79a10.47,10.47,0,0,0-4.48-1.7c-1.05-.14-2.21.62-3.35,1-.82-4.94,1.93-6.69,11.89-7.8-2.19-3.86-2.24-3.87-10.7-.95-.06-.11-.19-.27-.16-.34,3.69-7,7.18-14.19,11.24-21,.91-1.53,3.76-2.61,5.76-2.66,6.13-.15,12,.44,17.59,4.12s12.83,5.36,18.78,8.84c6.71,3.92,9,10.65,9.17,18.33a36.81,36.81,0,0,0,1.65,9.86c1.1,3.67,3.87,4.78,7.71,3.41,2.63-.94,5-2.67,7.7-3.3,2.23-.53,6.47-.62,6.77.21a12.7,12.7,0,0,1,.2,8.34c-2.45,6.14-5.66,12-8.66,17.9-2.81,5.55-2.68,10.46,1.56,15.55.9,1.08-1,5.15-2.43,7.34-1.72,2.65-4.29,4.75-6.47,7.12-4.93,5.37-7.27,12.16-9.55,18.79-4.11,12-6.93,24.41-11.49,36.18-2.87,7.37-5.5,15.35-13.15,20.09-7,4.38-13.86,6.83-21.76,2.32-3.34-1.91-7.07-3.13-10.45-5-7.75-4.29-7.71-12.57-9.87-19.76-4.15-13.84.55-27,3.1-40.25.23-1.19,2.15-2.59,3.53-3,6.47-1.69,6.89-2,7.63-8.8.41-3.73,3-5.41,7.53-4.72,6.92,1.07,12.62-2.5,18.65-4.81,3-1.16,6-2.41,9-3.78a75.93,75.93,0,0,0,8.76-4.59c.83-.53.92-2.22,1.34-3.38Zm-24.29-16.26c-3.06-3.42-13.26-4.6-19.21-2-2.66,1.15-6.15,1.83-6.3,5.39,4.22-.56,8.14-3.45,12.29-4C1016.86,393,1021.4,394.78,1025.77,394.21Zm-3.47-39.43c7.83-5.76,15.17-3.16,22.7,2.18-1.63-6.41-9.87-9.88-16.93-8.39C1024.09,349.4,1022,351.48,1022.3,354.78Zm4.44,11.63a4.85,4.85,0,0,0,4.56,1.41c2.06-.42,3.79-.77,5.48-1.25.88-.25,2.31-1.24,2.23-1.61-.23-1-1-2.48-1.78-2.66a25.12,25.12,0,0,0-8.19-.8c-1.17.15-2.8,2.38-2.87,3.74A1.72,1.72,0,0,0,1026.74,366.41Zm-9.81,14.35" transform="translate(-699.76 -77.87)"/><path class="cls-2" d="M961.44,586.15c-4.05-1.37-8.49-2.46-12.56-4.35-6.64-3.08-13-6.83-19.54-10-5.56-2.69-5.86-4-3.92-9.66,2.69-7.86,7.91-15.13,6.83-24-.66-5.4-1.94-10.72-2.93-16.08-1.74-9.47.08-18.33,4.58-26.75a79.8,79.8,0,0,0,3.87-8.34c3.08-7.84,7.83-14.31,15.47-18.14,7.34-3.68,13-9.29,18.46-15.16.85-.91,2.37-1.17,3.58-1.74a15.26,15.26,0,0,1,.24,4.07c-1.28,6-2.68,11.94-4.15,17.88-1.12,4.54-2.32,9.08-3.64,13.57-5.37,18.31-6.79,37.06-5.89,56,.15,3.17,1.81,6.29,2.85,9.41,2,6.16,4.62,12.2,6.08,18.5,1.34,5.8-2.74,9.95-6.33,13.9C963.92,585.84,962.71,585.8,961.44,586.15Z" transform="translate(-699.76 -77.87)"/><path class="cls-3" d="M1162.31,605.57c-1-2.32-2.64-4.58-2.91-7-.63-5.8-.75-11.67-.85-17.52-.18-10.12-.13-20.24-.29-30.35-.16-10.46-.56-20.92-.7-31.38-.28-21.05-.44-42.1-.69-63.16-.25-21.71-.46-43.43-.87-65.14-.12-6.14-1-12.26-1.34-18.41-.44-8.44-.53-16.89-1-25.32-.24-4-1.49-7.91-1.66-11.88-.52-12.85-1-25.7-1-38.56-.17-19.43-.07-38.86,0-58.28,0-2.37.8-4.74,1.22-7.11l1.4-.11c.55,1,1.57,2.07,1.57,3.12.11,16.21-.27,32.44.2,48.64.45,15.76.35,31.51,2.29,47.29a517.64,517.64,0,0,1,3.65,77.86c-.46,16.21-.14,32.44.24,48.66.23,9.37,1.34,18.71,1.91,28.08.17,2.91-.33,5.87-.16,8.78.85,14.44,2,28.86,2.69,43.3.47,9.22.3,18.48.71,27.71.33,7.48,1.37,14.93,1.58,22.41a63.17,63.17,0,0,1-1.34,13.27c-.34,1.84-2,3.42-3.08,5.12Z" transform="translate(-699.76 -77.87)"/><path class="cls-2" d="M1164.58,716.3c7.54-2.17,12,2.78,15.76,8.92,2.3,3.74,4.76,7.41,6.68,11.34,2.42,5,.85,9.3-3.36,12.7-6.42,5.17-12.41,10.89-19,15.85-2.37,1.79-5.83,2.34-8.89,2.85-.75.13-2.64-2.06-2.73-3.29-.28-3.51-2.13-4.12-5.12-4-1.66.05-4.16,0-4.85-1a25.85,25.85,0,0,1-3.26-7.9c-.23-.82.74-2.32,1.56-3,7.92-6.91,10.74-15.65,9.85-25.94-.49-5.57.61-6.63,6.17-6.76C1159.55,715.94,1161.7,716.17,1164.58,716.3Z" transform="translate(-699.76 -77.87)"/><path class="cls-3" d="M890.73,559.57c-.7-2-1.93-3.91-2-5.9-.3-8.3-.2-16.61-.37-24.92-.2-9.77-.53-19.54-.79-29.31-.49-17.95-1-35.9-1.45-53.85-.37-16.6-.39-33.2-.88-49.78-.53-17.69-1.63-35.35-2.1-53-.31-11.65.13-23.33.07-35,0-4.53-.8-9.07-.65-13.59.48-15.21,1.23-30.41,1.87-45.61l1.12,0c0,4.65,0,9.29,0,13.93-.12,17-.47,34.05-.33,51.06.07,9.22,1,18.43,1.46,27.65.18,3.21.21,6.42.46,9.63,1.15,14.9,2.51,29.8,3.47,44.71.62,9.63.76,19.29.94,28.94q.56,29.58.92,59.15c.2,17.28.25,34.56.31,51.83,0,6.44-.11,12.88-.17,19.32,0,1.43,0,2.86,0,4.29Z" transform="translate(-699.76 -77.87)"/><path class="cls-3" d="M1168.93,646.92c-1.37-1.74-3-3-3.46-4.57-1.18-3.91-3.12-7-6.9-8.71s-5.25-4.24-3.1-8.33c.78-1.48.89-3.34,1.21-5a5.66,5.66,0,0,1,6.11-4.67c1.6,0,3.55,2.29,4.61,4,2.79,4.55,5,9.48,7.81,14,2.07,3.34,1.08,6.63,0,9.52C1174.55,644.71,1171.61,645.39,1168.93,646.92Z" transform="translate(-699.76 -77.87)"/><path class="cls-2" d="M1169.61,663c0,1.34,0,2.68,0,4,0,3.47-2.16,5.61-5.1,5.6-3.67,0-7.37-1.13-11-2.08-.64-.17-1.51-2.28-1.18-2.82a135.06,135.06,0,0,1,8.57-12.83c.88-1.13,3.77-2.11,4.67-1.52,1.71,1.1,2.92,3.28,3.79,5.25.54,1.23.1,2.9.1,4.38Z" transform="translate(-699.76 -77.87)"/><path class="cls-2" d="M1127.87,733.76c3.6,4.21,6.09,8.56,6.57,14.34C1124.78,741.89,1122.64,737.37,1127.87,733.76Z" transform="translate(-699.76 -77.87)"/><path class="cls-4" d="M991.67,485.22c2.16,7.19,2.12,15.47,9.87,19.76,3.38,1.87,7.11,3.09,10.45,5,7.9,4.51,14.71,2.06,21.76-2.32,7.65-4.74,10.28-12.72,13.15-20.09,4.56-11.77,7.38-24.21,11.49-36.18,2.28-6.63,4.62-13.42,9.55-18.79,2.18-2.37,4.75-4.47,6.47-7.12,1.41-2.19,3.33-6.26,2.43-7.34-4.24-5.09-4.37-10-1.56-15.55,3-5.92,6.21-11.76,8.66-17.9a12.7,12.7,0,0,0-.2-8.34c-.3-.83-4.54-.74-6.77-.21-2.68.63-5.07,2.36-7.7,3.3-3.84,1.37-6.61.26-7.71-3.41a36.81,36.81,0,0,1-1.65-9.86c-.14-7.68-2.46-14.41-9.17-18.33-6-3.48-13-5.09-18.78-8.84s-11.46-4.27-17.59-4.12c-2,.05-4.85,1.13-5.76,2.66-4.06,6.81-7.55,14-11.24,21,0,.07.1.23.16.34,8.46-2.92,8.51-2.91,10.7.95-10,1.11-12.71,2.86-11.89,7.8,1.14-.36,2.3-1.12,3.35-1a10.47,10.47,0,0,1,4.48,1.7c.57.39.81,2.54.45,2.79a10.56,10.56,0,0,1-4,1.41,14.2,14.2,0,0,1-3.37-.32c.24,3.72.6,7,.64,10.34.13,9.77,0,19.55.26,29.32.21,7.19,5.68,11.21,13,11.08,9.24-.16,16.84-5,25.12-7.86,4.58-1.61,9.2-3.1,13.8-4.64l1.1,1.47c-.42,1.16-.51,2.85-1.34,3.38a75.93,75.93,0,0,1-8.76,4.59c-2.93,1.37-5.93,2.62-9,3.78-6,2.31-11.73,5.88-18.65,4.81-4.5-.69-7.12,1-7.53,4.72-.74,6.79-1.16,7.11-7.63,8.8-1.38.36-3.3,1.76-3.53,3C992.22,458.25,987.52,471.38,991.67,485.22Z" transform="translate(-699.76 -77.87)"/><path class="cls-4" d="M964.69,552.86c-1-3.12-2.7-6.24-2.85-9.41-.9-19,.52-37.7,5.89-56,1.32-4.49,2.52-9,3.64-13.57,1.47-5.94,2.87-11.9,4.15-17.88a15.26,15.26,0,0,0-.24-4.07c-1.21.57-2.73.83-3.58,1.74-5.5,5.87-11.12,11.48-18.46,15.16-7.64,3.83-12.39,10.3-15.47,18.14a79.8,79.8,0,0,1-3.87,8.34c-4.5,8.42-6.32,17.28-4.58,26.75,1,5.36,2.27,10.68,2.93,16.08,1.08,8.86-4.14,16.13-6.83,24-1.94,5.67-1.64,7,3.92,9.66,6.58,3.19,12.9,6.94,19.54,10,4.07,1.89,8.51,3,12.56,4.35,1.27-.35,2.48-.31,3-.89,3.59-4,7.67-8.1,6.33-13.9C969.31,565.06,966.74,559,964.69,552.86Z" transform="translate(-699.76 -77.87)"/><path class="cls-4" d="M1153.62,347.3c.51,8.43.6,16.88,1,25.32.32,6.15,1.22,12.27,1.34,18.41.41,21.71.62,43.43.87,65.14.25,21.06.41,42.11.69,63.16.14,10.46.54,20.92.7,31.38.16,10.11.11,20.23.29,30.35.1,5.85.22,11.72.85,17.52.27,2.41,1.9,4.67,2.91,7l1.52,0c1.07-1.7,2.74-3.28,3.08-5.12a63.17,63.17,0,0,0,1.34-13.27c-.21-7.48-1.25-14.93-1.58-22.41-.41-9.23-.24-18.49-.71-27.71-.73-14.44-1.84-28.86-2.69-43.3-.17-2.91.33-5.87.16-8.78-.57-9.37-1.68-18.71-1.91-28.08-.38-16.22-.7-32.45-.24-48.66a517.64,517.64,0,0,0-3.65-77.86c-1.94-15.78-1.84-31.53-2.29-47.29-.47-16.2-.09-32.43-.2-48.64,0-1-1-2.08-1.57-3.12l-1.4.11c-.42,2.37-1.21,4.74-1.22,7.11-.11,19.42-.21,38.85,0,58.28.1,12.86.53,25.71,1,38.56C1152.13,339.39,1153.38,343.32,1153.62,347.3Z" transform="translate(-699.76 -77.87)"/><path class="cls-4" d="M1162.79,615.6a5.66,5.66,0,0,0-6.11,4.67c-.32,1.7-.43,3.56-1.21,5-2.15,4.09-.63,6.59,3.1,8.33s5.72,4.8,6.9,8.71c.47,1.59,2.09,2.83,3.46,4.57,2.68-1.53,5.62-2.21,6.23-3.79,1.13-2.89,2.12-6.18,0-9.52-2.82-4.53-5-9.46-7.81-14C1166.34,617.89,1164.39,615.65,1162.79,615.6Z" transform="translate(-699.76 -77.87)"/><path class="cls-4" d="M1169.39,658.62c-.87-2-2.08-4.15-3.79-5.25-.9-.59-3.79.39-4.67,1.52a135.06,135.06,0,0,0-8.57,12.83c-.33.54.54,2.65,1.18,2.82,3.6,1,7.3,2.07,11,2.08,2.94,0,5.14-2.13,5.1-5.6,0-1.34,0-2.68,0-4h-.12C1169.49,661.52,1169.93,659.85,1169.39,658.62Z" transform="translate(-699.76 -77.87)"/><path class="cls-4" d="M886.11,445.59c.4,18,1,35.9,1.45,53.85.26,9.77.59,19.54.79,29.31.17,8.31.07,16.62.37,24.92.08,2,1.31,3.94,2,5.9l1.86-.5c0-1.43,0-2.86,0-4.29.06-6.44.19-12.88.17-19.32-.06-17.27-.11-34.55-.31-51.83q-.33-29.56-.92-59.15c-.18-9.65-.32-19.31-.94-28.94-1-14.91-2.32-29.81-3.47-44.71-.25-3.21-.28-6.42-.46-9.63-.5-9.22-1.39-18.43-1.46-27.65-.14-17,.21-34,.33-51.06,0-4.64,0-9.28,0-13.93l-1.12,0c-.64,15.2-1.39,30.4-1.87,45.61-.15,4.52.63,9.06.65,13.59.06,11.66-.38,23.34-.07,35,.47,17.68,1.57,35.34,2.1,53C885.72,412.39,885.74,429,886.11,445.59Z" transform="translate(-699.76 -77.87)"/><path class="cls-4" d="M1180.34,725.22c-3.77-6.14-8.22-11.09-15.76-8.92-2.88-.13-5-.36-7.17-.31-5.56.13-6.66,1.19-6.17,6.76.89,10.29-1.93,19-9.85,25.94-.82.72-1.79,2.22-1.56,3a25.85,25.85,0,0,0,3.26,7.9c.69,1,3.19,1.06,4.85,1,3-.09,4.84.52,5.12,4,.09,1.23,2,3.42,2.73,3.29,3.06-.51,6.52-1.06,8.89-2.85,6.57-5,12.56-10.68,19-15.85,4.21-3.4,5.78-7.74,3.36-12.7C1185.1,732.63,1182.64,729,1180.34,725.22Z" transform="translate(-699.76 -77.87)"/><path class="cls-4" d="M1121.55,623.08c.25-11.05-3.66-20.79-8.26-30.43-3.13-6.56-6.6-13-9.41-19.69-5.1-12.16-7.4-25.07-9.19-38.05-.42-3-2.49-4-4.38-5.71-4.59-4.12-10.51-7.92-12.8-13.19a59.84,59.84,0,0,1-5.2-27.8c.79-11.21,1.76-22.43,3.36-33.54a30.62,30.62,0,0,1,5-12.58c3.63-5.25,8.23-9.86,12.69-14.47,1.81-1.88,2.75-3.89.76-5.38-1.28-.95-4.52-1.06-5.66-.1a60.94,60.94,0,0,0-10.22,10.65c-5.17,7.24-9.75,14.9-14.56,22.39a12.31,12.31,0,0,0-1.3,2.49c-4.59,12.95-8.69,26.09-13.88,38.78-2.62,6.41-6.09,13.29-11.15,17.7-7.57,6.59-17.65,4.84-27,3.41a13.57,13.57,0,0,1-6.92-3c-7-6.51-13-13.86-15.37-23.41-2.3-9.4-1.64-18.85-.11-28.33,1.06-6.53,1.53-13.16,2.27-19.74l-1.36-.67c-1.16.78-2.35,1.53-3.48,2.35-5.21,3.8-6.08,10-7.52,15.44-3.57,13.42-5.93,27.15-9.11,40.68a155.85,155.85,0,0,0-3.9,34.67,30.6,30.6,0,0,0,4.52,16.81A52.4,52.4,0,0,1,977.2,580c0,7.74,3.47,12.34,10.81,14.72s15.5,3.94,22.31,7.64c9.39,5.1,18.73,5.23,28.76,3.92a32.78,32.78,0,0,1,13.39.77c10.69,3.24,21.29,6.91,31.63,11.15,8.42,3.44,17,6.76,24.2,12.77,4.31,3.59,9.58,6,15.2,9.45a29.86,29.86,0,0,0,0-3.73C1122.84,632.15,1121.45,627.6,1121.55,623.08Z" transform="translate(-699.76 -77.87)"/><path class="cls-4" d="M1134.44,748.1c-.48-5.78-3-10.13-6.57-14.34C1122.64,737.37,1124.78,741.89,1134.44,748.1Z" transform="translate(-699.76 -77.87)"/><path class="cls-4" d="M1152.46,614.78c.31-6.74.39-13.49.62-20.22.26-7.69,1-15.38.8-23-.64-22.48-1.81-44.94-2.48-67.42-.52-17-.52-34-.93-51.06-.06-2.58-.32-5.84-1.86-7.54-3.72-4.12-7.91-8-14-8.54a13.11,13.11,0,0,1-3.45-1c-6.83-2.62-13.55-5.6-20.52-7.78-3.1-1-7.93-1.85-9.84-.23-6.54,5.51-13.06,11.51-17.85,18.51-5.11,7.49-6,16.89-5.68,25.94a231.32,231.32,0,0,0,2.08,25.22,73.39,73.39,0,0,0,4.52,17.77c1.4,3.35,3.61,7.56,9,7.77,4.87-14.71,7.15-30.46,19.68-41.29a6.66,6.66,0,0,1-.33,3.66c-1.35,4-2.87,8-4.07,12.08-1.55,5.24-3.44,10.47-4.14,15.84-1.07,8.21-.47,16.68-2,24.77-1.87,9.87,2,18.29,5.24,26.76,2.65,6.85,6.86,13.12,10.57,19.54,6.22,10.76,10.43,22,10.75,34.68a156.06,156.06,0,0,0,2,19.52c.63,4.1,2.1,8.07,3.19,12.09l1.57.6c.92-1.29,1.75-2.66,2.76-3.87a67.74,67.74,0,0,0,13.4-26.43A29.63,29.63,0,0,0,1152.46,614.78Z" transform="translate(-699.76 -77.87)"/><path d="M1199.64,663.84a21,21,0,0,0-.94-2.63c-2-4-4-8-6.17-11.9-1.38-2.42-3.35-4.5-4.79-6.89-4.17-6.95-7.71-14.33-12.44-20.86-3.86-5.34-4.22-11-4.14-16.95.1-7.26,1-14.5,1.18-21.76s-.36-14.43-.49-21.65c-.11-6.3.2-12.62-.19-18.9-.63-10.43-2-20.82-2.46-31.26-1-23.43-1.52-46.88-2.21-70.33-.38-12.73-.7-25.46-1-38.19-.27-10-.24-20.1-.86-30.12-.54-8.78-1.89-17.5-2.72-26.26-.84-8.94-1.68-17.88-2.14-26.84q-1-20.44-1.51-40.93c-.34-14.6-.24-29.21-.65-43.81-.06-2.18-1.47-4.61-2.93-6.37s-4-2.22-5,.79c-1.29,4-2.93,8.13-3,12.24-.28,11,.2,22,.32,33,.11,9.65.23,19.3.19,28.94-.05,10.15-.75,20.31-.32,30.43.46,10.82,2.44,21.57,2.81,32.39.75,21.85.88,43.73,1.18,65.6,0,3.23-.32,6.47-.52,10.28-2.44-1.85-4.09-3.47-6-4.51-5.75-3.08-11.63-5.9-17.42-8.88-1.67-.85-3.12-2.32-4.86-2.78-10.19-2.71-19-9.35-29.78-10.36a43.21,43.21,0,0,1-7.84-1.64c-4.1-1.17-4.76-2.78-2.6-6.43,3.54-6,7.24-11.85,10.82-17.79,1.58-2.62,2.53-5.91,4.71-7.82,4.33-3.83,5.7-8.66,5.91-13.87.26-6.8,0-13.62-.2-20.43-.22-9.61-5.19-16.78-12.43-22.35-6.24-4.8-12.89-9.09-19.51-13.37-8-5.18-17.07-6.92-26.38-6.55-7.34.29-14.7,1.42-21.23,5.36-2.88,1.74-5.3,1.71-8.4-.4-6.62-4.53-12.52-1.91-15,5.62-1,3.22-2.92,6.18-4.55,9.18-2,3.62-4.77,7-6,10.79-3.31,10.64-4.17,21.49-1,32.45a46,46,0,0,1,1.83,10.25c.63,12.41.87,24.84,1.5,37.25.21,4.16,1.38,8.11,5.09,10.83,1.19.88,3,2.61,2.81,3.38-.76,2.39-.64,5.75-4.83,5.81-3.42,0-7.37.08-10.15,1.71a224.58,224.58,0,0,0-20,13.79q-11,8.19-21.58,17a49.84,49.84,0,0,0-8.52,8.84c-2,2.75-2.94,6.27-4.57,9.33-6,11.19-8.76,22.86-6.22,35.59,1.09,5.48,2.79,11.4,1.74,16.62-1.78,8.79-5.39,17.24-8.63,25.68-.51,1.33-3.28,2.74-4.81,2.55-4.17-.5-8.25-1.83-12.36-2.86-2.39-.59-3.41-1.93-3.4-4.61.1-20.39.3-40.79,0-61.18-.4-23.74-1.17-47.48-2.06-71.2-.76-20.08-1.8-40.15-3-60.22-.92-15.92-2.95-31.81-3.16-47.74-.36-27.75.3-55.52.58-83.29,0-2.37-.14-4.43-3.1-4.59s-4,1.78-4.27,4.22-.25,5.09-.36,7.64c-.81,18.6-1.69,37.19-2.37,55.79-.11,3.15,1,6.33,1,9.51.21,13.55.09,27.1.37,40.65.31,15,1,30,1.38,45,.67,26,1.33,52,1.84,78,.45,22.66.7,45.32,1,68,.07,5.14,0,10.28,0,16.61-4.23-2.72-8-4.72-11.22-7.36-3.07-2.5-5.39-5.92-8.42-8.51-14.61-12.48-28.33-25.68-39.39-41.65a56,56,0,0,0-20.4-18.18c-9.35-4.79-24.94-1.31-29.58,8.15-2,4.16-4.68,5.19-8.43,4.7-5.35-.69-9.28,2.23-13.14,4.92a21.25,21.25,0,0,0-6.52,7.18c-4.58,8.68-6.75,18-7.7,27.88s1.39,17.4,8,24.86A141.56,141.56,0,0,1,765,583c3.84,6.81,6.23,14.49,8.84,21.94,4.22,12,9.17,15.1,21.77,13.2a4.27,4.27,0,0,1,3.56,1.33c4.13,5,7.88,10.3,12.06,15.24,2.81,3.33,6.11,6.26,9.22,9.35,2.91,2.89,5.89,5.71,8.78,8.63,2.43,2.47,4.51,5.37,7.2,7.49,9.3,7.33,18.8,14.42,28.12,21.52-3.55,8.48-7,16.75-10.45,25-7.65,18-6.83,36.27-2.48,54.74,1.31,5.59,3.83,11.08,4.08,16.68.34,7.69.95,15.08,3.87,22.3,1.4,3.46,4.67,6.6,9.51,4.18,2.16,3.6,7.53,2.7,9.39,4.57a5.49,5.49,0,0,0,2.79,1.65c2.65.5,4-1.36,5.55-4.61,5.22,2.13,7.84,3.16,9.78-.53a25.19,25.19,0,0,0,1.75-4.89,7.93,7.93,0,0,1,4.9-5.63c4.76-2.19,9.88-4.84,13.16-8.72,5.33-6.33,9.59-13.63,13.76-20.84a57.59,57.59,0,0,0,7.66-25.41,8.58,8.58,0,0,1,1-2.31c6,7.07,14,10.16,21.71,13.66,7.92,3.58,16.15,6.5,23.93,10.34a43.72,43.72,0,0,0,19.29,4.76,105.07,105.07,0,0,0,17.87-1.6c6.29-1.06,12.45-2.86,18.65-4.41,4.14-1,8.19-2.65,12.39-3.21a93.33,93.33,0,0,0,28.71-8.58,139.6,139.6,0,0,0,37.71-27c1.51-1.53,3.79-2.3,5.72-3.42-.06,2.32-.08,4.63-.19,6.94a2.31,2.31,0,0,1-.53,1.49c-4.21,3.66-4.13,8.82-4.72,13.68-.56,4.68,2.82,9.65,7,11.89s8.46,4.51,9.12,10.3c.32,2.9,2.1,5.17,5.72,5.81,1.92.34,3.94,2.18,5.18,3.89,2.93,4,7.92,5.68,12.15,3.11a129.36,129.36,0,0,0,12.74-8.62q8.49-6.69,16.43-14.08c2.06-1.92,4.18-4.48,4.81-7.1a26.71,26.71,0,0,0-2.28-19.16c-.59-1.11-.18-4,.62-4.38,5.55-2.89,7.87-8.32,9.38-13.44C1204.64,693.81,1204.91,678.72,1199.64,663.84ZM883.13,342.78c-.31-11.65.13-23.33.07-35,0-4.53-.8-9.07-.65-13.59.48-15.21,1.23-30.41,1.87-45.61l1.12,0c0,4.65,0,9.29,0,13.93-.12,17-.47,34.05-.33,51.06.07,9.22,1,18.43,1.46,27.65.18,3.21.21,6.42.46,9.63,1.15,14.9,2.51,29.8,3.47,44.71.62,9.63.76,19.29.94,28.94q.56,29.58.92,59.15c.2,17.28.25,34.56.31,51.83,0,6.44-.11,12.88-.17,19.32,0,1.43,0,2.86,0,4.29l-1.86.5c-.7-2-1.93-3.91-2-5.9-.3-8.3-.2-16.61-.37-24.92-.2-9.77-.53-19.54-.79-29.31-.49-17.95-1-35.9-1.45-53.85-.37-16.6-.39-33.2-.88-49.78C884.7,378.12,883.6,360.46,883.13,342.78Zm7.73,375c-4.64,5-6.46,10.91-8.68,16.77-2.74,7.2-4.71,14.68-7.35,23.11-6-5.68-9.54-11.39-10.3-18.4-1-9.3-.24-18.69,4.16-26.95,2.73-5.12,7.43-9.27,11.63-13.47.88-.89,3.59-.59,5.19-.05C896.46,702.55,897.33,710.82,890.86,717.8Zm289.75-49c.73,2.22.82,4.66,1.23,7.36-5.8-.23-9.48-4.36-7.43-7.9.73-1.24,2.22-2,3.37-3C1178.76,666.42,1180.17,667.46,1180.61,668.81Zm-5.4-35.2c2.07,3.34,1.08,6.63,0,9.52-.61,1.58-3.55,2.26-6.23,3.79-1.37-1.74-3-3-3.46-4.57-1.18-3.91-3.12-7-6.9-8.71s-5.25-4.24-3.1-8.33c.78-1.48.89-3.34,1.21-5a5.66,5.66,0,0,1,6.11-4.67c1.6,0,3.55,2.29,4.61,4C1170.19,624.15,1172.39,629.08,1175.21,633.61Zm-5.6,29.39c0,1.34,0,2.68,0,4,0,3.47-2.16,5.61-5.1,5.6-3.67,0-7.37-1.13-11-2.08-.64-.17-1.51-2.28-1.18-2.82a135.06,135.06,0,0,1,8.57-12.83c.88-1.13,3.77-2.11,4.67-1.52,1.71,1.1,2.92,3.28,3.79,5.25.54,1.23.1,2.9.1,4.38Zm-18.7-366.14c-.17-19.43-.07-38.86,0-58.28,0-2.37.8-4.74,1.22-7.11l1.4-.11c.55,1,1.57,2.07,1.57,3.12.11,16.21-.27,32.44.2,48.64.45,15.76.35,31.51,2.29,47.29a517.64,517.64,0,0,1,3.65,77.86c-.46,16.21-.14,32.44.24,48.66.23,9.37,1.34,18.71,1.91,28.08.17,2.91-.33,5.87-.16,8.78.85,14.44,2,28.86,2.69,43.3.47,9.22.3,18.48.71,27.71.33,7.48,1.37,14.93,1.58,22.41a63.17,63.17,0,0,1-1.34,13.27c-.34,1.84-2,3.42-3.08,5.12l-1.52,0c-1-2.32-2.64-4.58-2.91-7-.63-5.8-.75-11.67-.85-17.52-.18-10.12-.13-20.24-.29-30.35-.16-10.46-.56-20.92-.7-31.38-.28-21.05-.44-42.1-.69-63.16-.25-21.71-.46-43.43-.87-65.14-.12-6.14-1-12.26-1.34-18.41-.44-8.44-.53-16.89-1-25.32-.24-4-1.49-7.91-1.66-11.88C1151.44,322.57,1151,309.72,1150.91,296.86ZM998.3,442c6.47-1.69,6.89-2,7.63-8.8.41-3.73,3-5.41,7.53-4.72,6.92,1.07,12.62-2.5,18.65-4.81,3-1.16,6-2.41,9-3.78a75.93,75.93,0,0,0,8.76-4.59c.83-.53.92-2.22,1.34-3.38l-1.1-1.47c-4.6,1.54-9.22,3-13.8,4.64-8.28,2.9-15.88,7.7-25.12,7.86-7.31.13-12.78-3.89-13-11.08-.29-9.77-.13-19.55-.26-29.32,0-3.31-.4-6.62-.64-10.34a14.2,14.2,0,0,0,3.37.32,10.56,10.56,0,0,0,4-1.41c.36-.25.12-2.4-.45-2.79a10.47,10.47,0,0,0-4.48-1.7c-1.05-.14-2.21.62-3.35,1-.82-4.94,1.93-6.69,11.89-7.8-2.19-3.86-2.24-3.87-10.7-.95-.06-.11-.19-.27-.16-.34,3.69-7,7.18-14.19,11.24-21,.91-1.53,3.76-2.61,5.76-2.66,6.13-.15,12,.44,17.59,4.12s12.83,5.36,18.78,8.84c6.71,3.92,9,10.65,9.17,18.33a36.81,36.81,0,0,0,1.65,9.86c1.1,3.67,3.87,4.78,7.71,3.41,2.63-.94,5-2.67,7.7-3.3,2.23-.53,6.47-.62,6.77.21a12.7,12.7,0,0,1,.2,8.34c-2.45,6.14-5.66,12-8.66,17.9-2.81,5.55-2.68,10.46,1.56,15.55.9,1.08-1,5.15-2.43,7.34-1.72,2.65-4.29,4.75-6.47,7.12-4.93,5.37-7.27,12.16-9.55,18.79-4.11,12-6.93,24.41-11.49,36.18-2.87,7.37-5.5,15.35-13.15,20.09-7,4.38-13.86,6.83-21.76,2.32-3.34-1.91-7.07-3.13-10.45-5-7.75-4.29-7.71-12.57-9.87-19.76-4.15-13.84.55-27,3.1-40.25C995,443.78,996.92,442.38,998.3,442ZM964.44,585.26c-.52.58-1.73.54-3,.89-4.05-1.37-8.49-2.46-12.56-4.35-6.64-3.08-13-6.83-19.54-10-5.56-2.69-5.86-4-3.92-9.66,2.69-7.86,7.91-15.13,6.83-24-.66-5.4-1.94-10.72-2.93-16.08-1.74-9.47.08-18.33,4.58-26.75a79.8,79.8,0,0,0,3.87-8.34c3.08-7.84,7.83-14.31,15.47-18.14,7.34-3.68,13-9.29,18.46-15.16.85-.91,2.37-1.17,3.58-1.74a15.26,15.26,0,0,1,.24,4.07c-1.28,6-2.68,11.94-4.15,17.88-1.12,4.54-2.32,9.08-3.64,13.57-5.37,18.31-6.79,37.06-5.89,56,.15,3.17,1.81,6.29,2.85,9.41,2,6.16,4.62,12.2,6.08,18.5C972.11,577.16,968,581.31,964.44,585.26Zm159.06,55.16c-5.62-3.43-10.89-5.86-15.2-9.45-7.24-6-15.78-9.33-24.2-12.77-10.34-4.24-20.94-7.91-31.63-11.15a32.78,32.78,0,0,0-13.39-.77c-10,1.31-19.37,1.18-28.76-3.92-6.81-3.7-14.82-5.22-22.31-7.64s-10.76-7-10.81-14.72a52.4,52.4,0,0,0-7.82-27.65,30.6,30.6,0,0,1-4.52-16.81,155.85,155.85,0,0,1,3.9-34.67c3.18-13.53,5.54-27.26,9.11-40.68,1.44-5.41,2.31-11.64,7.52-15.44,1.13-.82,2.32-1.57,3.48-2.35l1.36.67c-.74,6.58-1.21,13.21-2.27,19.74-1.53,9.48-2.19,18.93.11,28.33,2.35,9.55,8.38,16.9,15.37,23.41a13.57,13.57,0,0,0,6.92,3c9.31,1.43,19.39,3.18,27-3.41,5.06-4.41,8.53-11.29,11.15-17.7,5.19-12.69,9.29-25.83,13.88-38.78a12.31,12.31,0,0,1,1.3-2.49c4.81-7.49,9.39-15.15,14.56-22.39a60.94,60.94,0,0,1,10.22-10.65c1.14-1,4.38-.85,5.66.1,2,1.49,1.05,3.5-.76,5.38-4.46,4.61-9.06,9.22-12.69,14.47a30.62,30.62,0,0,0-5,12.58c-1.6,11.11-2.57,22.33-3.36,33.54a59.84,59.84,0,0,0,5.2,27.8c2.29,5.27,8.21,9.07,12.8,13.19,1.89,1.69,4,2.68,4.38,5.71,1.79,13,4.09,25.89,9.19,38.05,2.81,6.7,6.28,13.13,9.41,19.69,4.6,9.64,8.51,19.38,8.26,30.43-.1,4.52,1.29,9.07,1.93,13.61A29.86,29.86,0,0,1,1123.5,640.42Zm4.37,93.34c3.6,4.21,6.09,8.56,6.57,14.34C1124.78,741.89,1122.64,737.37,1127.87,733.76Zm7.37-82.37-1.57-.6c-1.09-4-2.56-8-3.19-12.09a156.06,156.06,0,0,1-2-19.52c-.32-12.64-4.53-23.92-10.75-34.68-3.71-6.42-7.92-12.69-10.57-19.54-3.28-8.47-7.11-16.89-5.24-26.76,1.53-8.09.93-16.56,2-24.77.7-5.37,2.59-10.6,4.14-15.84,1.2-4.08,2.72-8,4.07-12.08a6.66,6.66,0,0,0,.33-3.66c-12.53,10.83-14.81,26.58-19.68,41.29-5.36-.21-7.57-4.42-9-7.77a73.39,73.39,0,0,1-4.52-17.77,231.32,231.32,0,0,1-2.08-25.22c-.27-9.05.57-18.45,5.68-25.94,4.79-7,11.31-13,17.85-18.51,1.91-1.62,6.74-.74,9.84.23,7,2.18,13.69,5.16,20.52,7.78a13.11,13.11,0,0,0,3.45,1c6.11.51,10.3,4.42,14,8.54,1.54,1.7,1.8,5,1.86,7.54.41,17,.41,34,.93,51.06.67,22.48,1.84,44.94,2.48,67.42.22,7.66-.54,15.35-.8,23-.23,6.73-.31,13.48-.62,20.22a29.63,29.63,0,0,1-1.06,6.31,67.74,67.74,0,0,1-13.4,26.43C1137,648.73,1136.16,650.1,1135.24,651.39Zm48.42,97.87c-6.42,5.17-12.41,10.89-19,15.85-2.37,1.79-5.83,2.34-8.89,2.85-.75.13-2.64-2.06-2.73-3.29-.28-3.51-2.13-4.12-5.12-4-1.66.05-4.16,0-4.85-1a25.85,25.85,0,0,1-3.26-7.9c-.23-.82.74-2.32,1.56-3,7.92-6.91,10.74-15.65,9.85-25.94-.49-5.57.61-6.63,6.17-6.76,2.14,0,4.29.18,7.17.31,7.54-2.17,12,2.78,15.76,8.92,2.3,3.74,4.76,7.41,6.68,11.34C1189.44,741.52,1187.87,745.86,1183.66,749.26Z" transform="translate(-699.76 -77.87)"/><path d="M1025.77,394.21c-4.53.59-8.75.39-13.22,1-4,.52-8.23,1.84-12.29,2.38.15-3.56,3.64-4.24,6.3-5.39C1012.51,389.61,1022.71,390.79,1025.77,394.21Z" transform="translate(-699.76 -77.87)"/><path d="M1022.3,354.78c-.26-3.3,1.79-5.38,5.77-6.21,7.06-1.49,15.3,2,16.93,8.39C1037.47,351.62,1030.13,349,1022.3,354.78Z" transform="translate(-699.76 -77.87)"/><path d="M1031.3,367.82a4.85,4.85,0,0,1-4.56-1.41,1.72,1.72,0,0,1-.57-1.17c.07-1.36,1.7-3.59,2.87-3.74a25.12,25.12,0,0,1,8.19.8c.79.18,1.55,1.66,1.78,2.66.08.37-1.35,1.36-2.23,1.61C1035.09,367.05,1033.36,367.4,1031.3,367.82Z" transform="translate(-699.76 -77.87)"/><path d="M1014,385a2,2,0,0,1-3.23-.13c-.77-1.13-1.29-1.92-1.09-2.4a13.2,13.2,0,0,1,2.45-3.45,2,2,0,0,1,2.73-.26c1.1.84,2.17,1.67,2,2A18.7,18.7,0,0,1,1014,385Z" transform="translate(-699.76 -77.87)"/><path class="cls-5" d="M794.76,607.5c-2.25,2.82-6.64,3.27-9.89,1.69s-5.48-4.74-6.86-8.08-2-6.93-3-10.4a54.11,54.11,0,0,0-6.87-14.88c-5.44-8.22-13.07-14.89-18-23.43a77,77,0,0,1-3.85-7.91,20.78,20.78,0,0,1-1.76-5.32c-.42-2.95.4-5.91,1.21-8.78.58-2,.37-4.23.81-6.29,1.2-5.68,2.46-11.48,5.41-16.49s8-9.16,13.78-9.53a8.39,8.39,0,0,1,8.88,5.7,19.9,19.9,0,0,1,1.23,7.39,1.77,1.77,0,0,1-2.13,2l-7.56.81a10.89,10.89,0,0,0-3.31.72,5.53,5.53,0,0,0-2.92,6.36c1.53-.55,3.48-1.09,5-1.64a15.8,15.8,0,0,1,4.56-1.13,12.68,12.68,0,0,1,5.48,1.27,22.87,22.87,0,0,1,9,6.45c1.52,1.89,2.63,4.09,4.15,6,1,1.22,2.09,2.3,3,3.55a27.26,27.26,0,0,1,2.69,4.92l2.28,4.91c4.33,9.35,5.11,19.37,5.68,29.65a36.79,36.79,0,0,1-.06,7c-.44,3.22-1.74,6.29-2.11,9.53-.19,1.67-.14,3.36-.35,5A22,22,0,0,1,794.76,607.5Z" transform="translate(-699.76 -77.87)"/><path class="cls-5" d="M803,614.87a7.9,7.9,0,0,1-1.25-6.56c.28-1,.77-2,1.13-3,1.55-4.38.67-9.39,2.48-13.68a2.21,2.21,0,0,1,.74-1,2.36,2.36,0,0,1,2,.08,46.45,46.45,0,0,1,9.61,4.18c2,1.27,3.86,2.84,5.82,4.22,5.67,4,12.49,6.34,17.52,11.1,1.41,1.33,2.65,2.82,4,4.21a79,79,0,0,0,8.25,7.13l8.26,6.5c1.43,1.13,2.8,2.43,4.26,3.5,5.87,4.28,11.79,8.61,16.6,14.06,1.58,1.81,3,3.72,4.69,5.47,8.92,9.44,22.28,12.88,33.64,19.16,4.23,2.34,8.21,5.1,12.25,7.75a278.37,278.37,0,0,0,28,16.11c10.79,5.38,21.85,10.41,32.83,15.4,3,1.38,6,2.75,8.92,4.37a80.06,80.06,0,0,1,8.24,5.41,124.79,124.79,0,0,1,25.52,25.23,13.54,13.54,0,0,1,2.43,4.27,5,5,0,0,1-.79,4.66c-1.1,1.23-2.85,1.58-4.47,1.86-15.23,2.65-31.31,5.23-45.79-.17-5.77-2.15-11-5.49-16.65-8-2.8-1.25-5.69-2.3-8.41-3.73a59.86,59.86,0,0,1-7.07-4.55A307,307,0,0,1,926,714.39a141.21,141.21,0,0,0-25.5-18.77c-2-1.16-4-2.27-6-3.58a70.4,70.4,0,0,1-7.49-6.2,59.25,59.25,0,0,0-8.13-6.54c-3.25-2-6.89-3.44-10.06-5.6a93.2,93.2,0,0,1-7.34-6.14c-4.69-4-10-7.07-15.35-10.16-8.4-4.89-14.88-12.85-21.68-19.79-4.76-4.86-9.14-10.12-14.21-14.65A55.94,55.94,0,0,1,803,614.87Z" transform="translate(-699.76 -77.87)"/><path class="cls-5" d="M782.5,513.56c-2.78-7-5.19-14.88-2.7-22a8.53,8.53,0,0,1,2.36-3.78A11.42,11.42,0,0,1,785.7,486a35.73,35.73,0,0,1,5.44-1.61A21.08,21.08,0,0,1,804.88,487a36.6,36.6,0,0,1,10.63,9.36c1.65,2.05,3.16,4.21,5,6.13,1.27,1.36,2.68,2.59,3.88,4a61.15,61.15,0,0,1,4.23,6.29,47,47,0,0,0,6.82,8.26c4.16,4,9.23,7.49,11.41,12.84,4,9.88,16.46,13.23,24.72,20a68.83,68.83,0,0,0,10,7.21,67.09,67.09,0,0,0,6.13,2.89,159.77,159.77,0,0,0,24.61,8.67c5.45,1.33,11.09,2.66,16.18,5,4,1.84,7.58,4.34,11.51,6.24,3.22,1.57,6.62,2.72,10,4,4.87,2,9.59,4.26,14.49,6.13,13.12,5,27.39,6.71,40.21,12.43,4.56,2,8.95,4.58,13.78,5.83,10.59,2.74,22.07-1,32.61,1.88,4.21,1.15,8.29,3.07,12.49,4.22,4.91,1.34,9.71,3,14.51,4.7,2.53.88,5.06,1.77,7.53,2.83a115.66,115.66,0,0,1,10.34,5.29c7,3.91,14.07,7.83,21,12a34.63,34.63,0,0,1,5.63,4c4.66,4.25,6.89,10.66,7.35,16.95s-.7,12.59-1.83,18.79-2.74,11.63-4,17.65a35.72,35.72,0,0,1-6.65,14.33,45.37,45.37,0,0,1-4.59,5c-6.33,6-13.9,10.47-21.4,14.9l-7.79,4.61a67.52,67.52,0,0,1-7.31,3.92,46,46,0,0,1-14.29,3.32,27.71,27.71,0,0,1-10.89-.77c-3.49-1.12-6.71-3.54-8-6.95-4.45-11.32-17.69-16.93-27.66-23.9-5.21-3.65-10.45-7.31-16.21-10-2.9-1.37-5.91-2.48-8.88-3.69a142.4,142.4,0,0,1-26.89-14.52c-4.79-3.29-10.37-6.28-15.35-9.26-3.5-2.09-7-4.19-10.65-6-2.77-1.39-5.62-2.62-8.44-3.91a124.75,124.75,0,0,1-21-11.68c-12.19-8.71-22-20.65-35-28.18-7.06-4.09-12.55-10.68-18.6-16.16a88.16,88.16,0,0,0-16-11.26c-2.66-1.5-5.37-2.92-7.86-4.67-1.66-1.16-3.23-2.47-5-3.49-2.2-1.27-4.64-2.05-7-3.1a61.11,61.11,0,0,1-8.53-5.05c-2.34-6.89-1.12-14.71-2.27-21.9a55.62,55.62,0,0,0-2-7.92,80.45,80.45,0,0,0-7.58-17.35C793.38,529,785.86,522.1,782.5,513.56Z" transform="translate(-699.76 -77.87)"/><path class="cls-6" d="M863.36,798.54a2.3,2.3,0,0,0,.39,1.18,2.21,2.21,0,0,0,.66.51,5.82,5.82,0,0,0,6.68-.91,11,11,0,0,0,1.36-1.75c2.1-3.08,4.25-6.28,4.84-10a3.59,3.59,0,0,0,0-1.53,1.45,1.45,0,0,0-1-1.06,2,2,0,0,0-1.23.2,3.71,3.71,0,0,0-1,.52,6.69,6.69,0,0,0-1.4,2.4c-1.17,2.36-3.71,3.69-6.19,4.56-1,.37-2.18.71-2.64,1.76A8.19,8.19,0,0,0,863.36,798.54Z" transform="translate(-699.76 -77.87)"/><path class="cls-6" d="M873.38,803.67a2.81,2.81,0,0,0,2.51.17,5.28,5.28,0,0,0,2.06-1.57c2.1-2.41,2.92-5.65,3.67-8.75a9.51,9.51,0,0,0,.36-4.09c-.13-.66-.52-1.39-1.19-1.48s-1.27.53-1.69,1.1a71.78,71.78,0,0,0-5.14,7.44C872.8,798.5,870.66,801.87,873.38,803.67Z" transform="translate(-699.76 -77.87)"/><path class="cls-6" d="M879.93,804.79a1.67,1.67,0,0,0,1,1.18,2.49,2.49,0,0,0,2.06-.68,8.54,8.54,0,0,0,2.19-2,8.09,8.09,0,0,0,.83-1.82,30.1,30.1,0,0,0,1.52-7.57,6.51,6.51,0,0,0-.31-3,2.26,2.26,0,0,0-1.43-1.37,2.3,2.3,0,0,0-2,.66,5.62,5.62,0,0,0-1.54,3.53c-.14,1.31,0,2.63-.19,3.94a11.52,11.52,0,0,1-1.14,4C880.35,802.8,879.57,803.43,879.93,804.79Z" transform="translate(-699.76 -77.87)"/><path class="cls-6" d="M891.21,803.59a4.07,4.07,0,0,0,2.09-2.85c.29-1.19.3-2.43.53-3.63.5-2.58,2.06-5.08,1.53-7.65a1,1,0,0,0-.34-.66,1,1,0,0,0-1.11.22c-1.77,1.29-2.75,3.37-3.64,5.37l-1.54,3.4c-.58,1.3-1.26,3.05-.91,4.51S890.09,804.07,891.21,803.59Z" transform="translate(-699.76 -77.87)"/><path class="cls-6" d="M859.39,788.5a2.08,2.08,0,0,1-.67-.74c-1.5-2.48-.9-5.81.74-8.2s4.13-4,6.61-5.57,5-3,7-5.16c.73-.83,1.36-1.74,2.14-2.53a14.4,14.4,0,0,1,6.31-3.32,36.17,36.17,0,0,1,29.33,4.26,6.34,6.34,0,0,1,1.48,1.2c1.2,1.43,1.05,3.53.71,5.37a8.45,8.45,0,0,1-1.28,3.5,8.7,8.7,0,0,1-1.94,1.79c-4.07,3-9,5.16-14,4.78-5.61-.44-10.61-4-16.21-4.49a22,22,0,0,0-9.62,1.67,16,16,0,0,0-6,3.61C863,785.74,861.53,789.78,859.39,788.5Z" transform="translate(-699.76 -77.87)"/><path class="cls-7" d="M858.81,766.13a19.34,19.34,0,0,0,1.93,5.53,1.25,1.25,0,0,0,.45.56,1.33,1.33,0,0,0,.62.13c1.72.08,3.6,0,4.88-1.15s1.6-3.48,1-5.31a25.6,25.6,0,0,0-2.66-5,25.06,25.06,0,0,1-2.47-6,50,50,0,0,1-1.26-9.61l-.61-9.25a61.62,61.62,0,0,1,.09-13.51A47.39,47.39,0,0,1,862,716.2c.62-2.06,1.27-4.1,2-6.14a33,33,0,0,1,2.77-6.59,29.78,29.78,0,0,1,4.28-5.29A19.42,19.42,0,0,0,873.7,695a5.73,5.73,0,0,0,.95-4,3.45,3.45,0,0,0-2.67-2.85,4.64,4.64,0,0,0-2,.24,14.74,14.74,0,0,0-6.58,4.46,30.45,30.45,0,0,0-4.34,6.76,67.38,67.38,0,0,0-6.47,21.25,122.69,122.69,0,0,0-.6,18.49c.07,3,.9,5.9,1.42,8.85.25,1.45.5,2.91.81,4.35C855.22,757.14,858,761.58,858.81,766.13Z" transform="translate(-699.76 -77.87)"/><path class="cls-8" d="M889.52,757.2a4.71,4.71,0,0,1-1.59,0,3.72,3.72,0,0,1-1.76-1.14,9.65,9.65,0,0,1-2.46-5.81,19.66,19.66,0,0,1,.63-6.38,48.26,48.26,0,0,1,6.79-15.25,23.53,23.53,0,0,1,4.3-5.12,10.77,10.77,0,0,1,6-2.66,5.6,5.6,0,0,1,2.44.31,8.66,8.66,0,0,1,2.56,1.87,88.53,88.53,0,0,0,17.72,12.66,6.3,6.3,0,0,1,3,2.52,5.08,5.08,0,0,1,.23,2.79,34.68,34.68,0,0,1-2.46,7.48,30.82,30.82,0,0,0-2,7.08,18.82,18.82,0,0,1-.88,4.74c-.62,1.49-2,2.81-3.65,2.68a5.74,5.74,0,0,1-1.71-.52,88.84,88.84,0,0,0-13.93-4.53,57,57,0,0,0-7.19-1.38C893.58,756.3,891.49,757,889.52,757.2Z" transform="translate(-699.76 -77.87)"/><path class="cls-7" d="M1184.38,713.84a45.25,45.25,0,0,1-.17-17.66c.87-4.59,2.45-9.07,2.71-13.74.29-5.11-1-10.18-2.67-15a114.3,114.3,0,0,0-4.58-11.45c-1.49-3.21-3.17-6.8-2-10.14a1,1,0,0,1,.55-.72,1.23,1.23,0,0,1,.75.09,12.84,12.84,0,0,1,9.65,9,31.41,31.41,0,0,1,1.86,5c.53,2.06.66,4.24,1.49,6.21a42.67,42.67,0,0,0,2.31,4.05c3.43,6.18,2.46,13.73,1.91,20.78-.38,5-.51,10-1.72,14.84a24.3,24.3,0,0,1-4.18,9c-.76,1-2.26,3.08-3.56,3.32C1185.12,717.73,1184.62,715,1184.38,713.84Z" transform="translate(-699.76 -77.87)"/><path class="cls-8" d="M1143.49,697.6a23.93,23.93,0,0,1-1.27-5.38c-.26-3.23.79-6.41,1.88-9.46q.81-2.26,1.65-4.51a5.46,5.46,0,0,1,1.12-2,4.13,4.13,0,0,1,1.83-1c2.82-.8,5.82,0,8.65.76l10.45,2.89c1.45.4,3,.86,3.93,2a6,6,0,0,1,.88,1.78,38,38,0,0,1,1.4,6.78l.72,5.06a21.27,21.27,0,0,1,.32,3.73,19.21,19.21,0,0,1-1,5,5.88,5.88,0,0,1-.74,1.77,5.16,5.16,0,0,1-3,1.79,26,26,0,0,1-5.12.71,112.63,112.63,0,0,1-12.73.08c-3-.15-5.52.44-6.72-2.93C1144.94,702.36,1144.24,700,1143.49,697.6Z" transform="translate(-699.76 -77.87)"/><path class="cls-7" d="M1139.32,694.78a35,35,0,0,0,1.56,13.62c.5,1.46,1.14,2.87,1.78,4.27l3.74,8.25a25.48,25.48,0,0,1,1.62,4.2,12.68,12.68,0,0,1-6.59,14.46c-1.11.56-2.52.93-3.54.22a4.56,4.56,0,0,1-1.37-2.35,32.75,32.75,0,0,1-1.55-6c-.76-4.74-3-9.21-4.41-13.8a37.89,37.89,0,0,1-1.3-4.89c-.58-3.38-.26-6.83-.12-10.27a90.24,90.24,0,0,1,1.86-14.54,71.43,71.43,0,0,0,1.29-11.09,71.22,71.22,0,0,1,.51-8.65,37.21,37.21,0,0,1,3.64-10.11,29.37,29.37,0,0,1,4.17-6.68c1.28-1.43,2.81-2.64,4-4.16,1.9-2.46,2.82-5.61,5.44-7.55a5.08,5.08,0,0,1,3.67-1.05c2.82.4,3.78,3.2,3.92,5.67a9.36,9.36,0,0,1-.49,3.94,13.86,13.86,0,0,1-1.88,3,122.79,122.79,0,0,0-12.85,21.81,39,39,0,0,0-2.71,7.44C1138.67,685,1139.59,690.2,1139.32,694.78Z" transform="translate(-699.76 -77.87)"/><path class="cls-5" d="M990.5,547.17H1001v.56h-.53a3.79,3.79,0,0,0-1.62.24,1.48,1.48,0,0,0-.63.68,7.58,7.58,0,0,0-.18,2.17v9.93a10,10,0,0,0,.41,3.6,3.39,3.39,0,0,0,1.35,1.47,4.44,4.44,0,0,0,2.38.58,5,5,0,0,0,2.8-.74,4.57,4.57,0,0,0,1.74-2,12.53,12.53,0,0,0,.57-4.53v-8.27a4.76,4.76,0,0,0-.28-1.94,1.71,1.71,0,0,0-.72-.81,4.25,4.25,0,0,0-1.9-.34v-.56h7v.56H1011a2.67,2.67,0,0,0-1.42.34,2,2,0,0,0-.83,1,5.18,5.18,0,0,0-.19,1.72v7.7a20.25,20.25,0,0,1-.47,5.16,5.78,5.78,0,0,1-2.3,2.92,8.32,8.32,0,0,1-5,1.33,9.39,9.39,0,0,1-4.06-.71,5.91,5.91,0,0,1-2.77-2.45,8.46,8.46,0,0,1-.81-4v-9.93a7.12,7.12,0,0,0-.19-2.18,1.49,1.49,0,0,0-.68-.68,4.05,4.05,0,0,0-1.76-.23Z" transform="translate(-699.76 -77.87)"/><path class="cls-5" d="M1015.73,562.84a2.49,2.49,0,0,1,2.49,2.5,2.39,2.39,0,0,1-.73,1.76,2.43,2.43,0,0,1-1.76.72,2.48,2.48,0,0,1-2.49-2.48,2.51,2.51,0,0,1,2.49-2.5Z" transform="translate(-699.76 -77.87)"/><path class="cls-5" d="M1033.94,546.71l.16,6.76h-.61a6.91,6.91,0,0,0-2.13-4.09,5.37,5.37,0,0,0-3.67-1.55,3.47,3.47,0,0,0-2.42.81,2.51,2.51,0,0,0-.89,1.88,2.29,2.29,0,0,0,.32,1.2,5.07,5.07,0,0,0,1.39,1.39,32,32,0,0,0,3.24,1.75,14.27,14.27,0,0,1,4.8,3.3,5.6,5.6,0,0,1,1.23,3.56,5.78,5.78,0,0,1-2,4.38,7.13,7.13,0,0,1-5,1.83,8.1,8.1,0,0,1-1.81-.2,13.58,13.58,0,0,1-2.14-.73,3.22,3.22,0,0,0-1.18-.3,1.48,1.48,0,0,0-.83.3,2.15,2.15,0,0,0-.7.91h-.55v-7.65h.55a8.78,8.78,0,0,0,2.54,4.92,5.94,5.94,0,0,0,4,1.7,3.78,3.78,0,0,0,2.67-.91,2.82,2.82,0,0,0,1-2.13,2.75,2.75,0,0,0-.38-1.39,4.38,4.38,0,0,0-1.16-1.27,16.55,16.55,0,0,0-2.75-1.58,23.54,23.54,0,0,1-4-2.32,7.2,7.2,0,0,1-1.87-2.14,5.34,5.34,0,0,1-.65-2.6,5.55,5.55,0,0,1,1.78-4.13,6.25,6.25,0,0,1,4.49-1.7,7.57,7.57,0,0,1,1.91.24,9.69,9.69,0,0,1,1.71.66,4,4,0,0,0,1.42.49.79.79,0,0,0,.61-.24,2.74,2.74,0,0,0,.42-1.15Z" transform="translate(-699.76 -77.87)"/><path class="cls-5" d="M1040.41,562.84a2.5,2.5,0,0,1,1.77,4.26,2.44,2.44,0,0,1-1.77.72,2.49,2.49,0,0,1,0-5Z" transform="translate(-699.76 -77.87)"/><path class="cls-5" d="M1048.59,547.73v-.56h10.78v.56h-.65a2.85,2.85,0,0,0-1.44.31,1.46,1.46,0,0,0-.6.72,6.16,6.16,0,0,0-.16,1.88v9.93a11.23,11.23,0,0,1-.59,4.24,4.81,4.81,0,0,1-2.07,2.21,6.77,6.77,0,0,1-3.58.89,6.18,6.18,0,0,1-4.13-1.34,3.9,3.9,0,0,1-1.58-3,2.32,2.32,0,0,1,.64-1.7,2.15,2.15,0,0,1,1.57-.65,2.18,2.18,0,0,1,1.54.59,1.88,1.88,0,0,1,.62,1.43,2.24,2.24,0,0,1-.11.73,6.34,6.34,0,0,1-.47.76,2,2,0,0,0-.41.86.82.82,0,0,0,.39.67,2.43,2.43,0,0,0,1.48.42,1.66,1.66,0,0,0,1.06-.33,1.77,1.77,0,0,0,.59-1,23.42,23.42,0,0,0,.17-3.87V550.64a6.19,6.19,0,0,0-.17-1.94,1.5,1.5,0,0,0-.67-.68,2.65,2.65,0,0,0-1.35-.29Z" transform="translate(-699.76 -77.87)"/><path class="cls-5" d="M1063.38,562.84a2.51,2.51,0,0,1,2.5,2.5,2.48,2.48,0,0,1-2.5,2.48,2.49,2.49,0,0,1,0-5Z" transform="translate(-699.76 -77.87)"/><path class="cls-5" d="M1080,561.68h-7.16l-.86,2a4.54,4.54,0,0,0-.41,1.63,1.37,1.37,0,0,0,.68,1.26,5.82,5.82,0,0,0,2,.36v.55h-6.74v-.55a3,3,0,0,0,1.79-.91,11.88,11.88,0,0,0,1.74-3.06l7.25-16.18h.28l7.32,16.63a10.18,10.18,0,0,0,1.71,3,2.36,2.36,0,0,0,1.44.54v.55h-9.81v-.55h.41a3.08,3.08,0,0,0,1.66-.33.82.82,0,0,0,.32-.69,1.76,1.76,0,0,0-.09-.55c0-.09-.17-.47-.44-1.13Zm-.51-1.11-3-7-3.11,7Z" transform="translate(-699.76 -77.87)"/></g><g id="Calque_4" data-name="Calque 4"><path d="M941.78,144.89c4.74,6.77,11.3,9.62,18.77,10.92.52.09,1.13-.1,1.59.1a15.84,15.84,0,0,1,2.19,1.31c-.69.63-1.4,1.83-2.07,1.81-4.66-.17-9.4-.1-13.93-1a66.53,66.53,0,0,1-23.5-10c-2-1.3-4.45-1.78-6.73-2.54-22-7.37-27-36.29-14.44-51.78,7.54-9.32,17.43-13.51,29.17-11.38,12.79,2.32,21,10.53,24.29,23,3.84,14.42.06,26.74-11.64,36.35C944.35,142.56,943.29,143.56,941.78,144.89Zm5.41-25.45c-.54-8.16-3-17.16-6.89-23.45-4.85-7.81-12.27-10.22-20.78-6.84-7.54,3-9.87,9.43-10.58,16.58a46.52,46.52,0,0,0,4.68,25c3.09,6.43,7.73,11.24,15.27,11.19,6.3,0,13-2.48,15.77-10.79C945.93,127.36,946.37,123.34,947.19,119.44Z" transform="translate(-699.76 -77.87)"/><path d="M867.59,117.09c.29,4.34-1.8,7.88-5,11-3.41,3.35-3.25,4,.58,6.71,5.15,3.62,10.37,7.12,15.4,10.9a15.72,15.72,0,0,0,11.35,3c1-.08,2.06,1,3.1,1.54-.74.76-1.34,1.9-2.24,2.23-3.77,1.38-7.59,2.68-11.47,3.7-4.16,1.1-6.61-2.38-9.48-4.28-6.58-4.37-12.82-9.24-19.37-13.65-1.15-.77-3.27-.59-4.71-.14-.48.16-.66,2.66-.29,3.88,1.44,4.74,3.24,9.37,4.77,14.09,1,3.25,3.07,4.39,6.43,3.89,1.16-.18,2.46.56,3.7.87-1,.81-1.93,2-3.1,2.38q-9.79,3.59-19.71,6.82c-.91.29-2.09-.25-3.15-.4.56-1,.85-2.51,1.71-3,5-3,5.13-3.34,3.24-8.83Q832.88,139,826.5,120.15c-1.59-4.67-2-7.3-8.39-5.94-.8.17-1.86-.92-2.8-1.42.65-.71,1.18-1.81,2-2.07,8.91-2.93,17.8-6,26.83-8.47,5.77-1.59,11.7-1.73,17,2C865.55,107.26,868,111.3,867.59,117.09Zm-23.39-8.9-4.72,1.18c-3.36.85-4.63,2.46-2.93,6a75.39,75.39,0,0,1,3.42,9.85c2.86,9.19,4.51,9.66,11.94,3.36.21-.17.46-.29.65-.47a11.45,11.45,0,0,0,2.37-12.6C853.06,110.85,849.35,108.12,844.2,108.19Z" transform="translate(-699.76 -77.87)"/><path d="M890.73,943.28c11.58-5,15.76-4.18,21.06,4.3,2.91-1.18,5.72-2.79,8.73-3.44,8.52-1.85,15,4.06,13.91,12.75-.78,6.52-2.09,13-3,19.48-.42,2.87-1.22,6,2.59,7.52a2.49,2.49,0,0,1,1,2.22c-.43.78-1.62,1.75-2.36,1.66q-8.16-1.1-16.26-2.67c-.76-.14-1.29-1.45-1.92-2.21.83-.67,1.64-1.87,2.49-1.9,3.31-.09,4.27-1.94,4.69-4.85.85-5.84,2-11.62,3-17.45.75-4.71-.49-6.91-3.94-7.4-4.19-.59-8.6,2.2-9.2,5.86-1,5.83-1.84,11.67-2.82,17.49-.41,2.46-.42,4.49,2.68,5.31.78.21,1.22,1.71,1.82,2.62-.92.57-1.91,1.72-2.74,1.62-5.58-.73-11.14-1.65-16.67-2.7-.77-.14-1.32-1.39-2-2.12.74-.63,1.45-1.75,2.22-1.8,3.71-.23,4.45-2.65,4.92-5.68.87-5.57,2-11.09,2.95-16.65.77-4.47-.78-7.26-4.21-7.78-3.69-.56-8.45,2.69-9,6-.88,5.56-1.76,11.12-2.74,16.67-.48,2.7-.68,5,2.67,6.17.75.26,1,1.83,1.55,2.8-1,.46-2.06,1.41-3,1.31q-7.8-.88-15.53-2.27c-.91-.17-1.64-1.37-2.45-2.09.84-.82,1.64-2.29,2.53-2.34,3-.18,3.77-1.86,4.17-4.4,1.06-6.62,2.32-13.21,3.42-19.83.37-2.19.59-4.35-2.66-4.76a2.76,2.76,0,0,1-1.72-2.11,3.09,3.09,0,0,1,1.86-2.12,60.3,60.3,0,0,1,7.41-1.84C890.11,937.52,890.41,937.75,890.73,943.28Z" transform="translate(-699.76 -77.87)"/><path d="M1209.23,130.12c17.13-.23,30.8,12.85,31.19,29.62.42,18.23-15.33,34.48-32.71,34.65-16.79.16-30.23-13.48-30.4-30.86S1192.35,130.23,1209.23,130.12Zm-6.69,57.29.38,1c3.39-1.34,7.23-2.05,10.08-4.12,9.47-6.89,15-16.61,17.65-27.86a14.57,14.57,0,0,0-2.45-12.62c-7.14-9.16-19-9.53-27.66-.75a48.65,48.65,0,0,0-12.63,21.16C1184.84,175.18,1189.33,186.84,1202.54,187.41Z" transform="translate(-699.76 -77.87)"/><path d="M790.43,880.27c14.87.29,23.81,5.6,29.55,16.25,1.29,2.38,1.81,6.07,6.16,4.42.06,0,1.7,2.66,1.33,3.18-3.23,4.59-6.71,9-10.26,13.36a2.48,2.48,0,0,1-2.44.26,3.53,3.53,0,0,1-.92-2.72c.49-2.88,1.55-5.67,1.91-8.55,1.39-11.23-10-20-21.23-17.74-12,2.37-24.06,16.6-24.42,28.84-.23,7.63,5.28,15.58,12.52,17.79a3.78,3.78,0,0,0,3.16-.51c4.09-4.05,8-8.25,12-12.47,1.69-1.82,1.09-3.49-.35-5.35-.68-.88-.41-2.51-.56-3.8,1.37.21,3.16-.05,4.06.71q6.42,5.46,12.38,11.46c.91.91.94,2.7,1.37,4.09a14.08,14.08,0,0,0-3.82-.12c-2.19.54-4.77.92-6.33,2.32A123.92,123.92,0,0,0,793.69,943c-1.78,2-3.74,2.68-6.05,1.77-12.62-5-22.49-12.59-26.41-26.44-4.05-14.31,5.21-28.38,15.56-33.42C781.87,882.42,787.55,881.21,790.43,880.27Z" transform="translate(-699.76 -77.87)"/><path d="M1089.8,143.89c4.22.08,7.21-2,9.81-4.95a13.21,13.21,0,0,1,2.44-2.65,13.41,13.41,0,0,1,3.47-1.1c-.1,1.1.11,2.37-.35,3.29a94.21,94.21,0,0,1-5.68,10.16,4.72,4.72,0,0,1-3.83,1.72c-13.38-2.21-26.71-4.65-40.05-7a6.5,6.5,0,0,1-2.33-.58,9.15,9.15,0,0,1-1.71-1.93c.71-.45,1.38-1.22,2.11-1.29,5.76-.56,6.72-1.24,7.64-6.9,2.23-13.65,4.31-27.31,6.49-41,.56-3.5.15-6.1-4.2-6.47-.91-.07-1.72-1.25-2.58-1.92,1.08-.47,2.23-1.48,3.21-1.33,8.61,1.29,17.2,2.78,25.79,4.24,4.88.82,9.76,1.69,14.63,2.53.53.1,1.35,0,1.54.31.89,1.39,2.38,3,2.22,4.35-.43,3.55-1.61,7-2.49,10.5-.75-.72-2.14-1.45-2.14-2.17,0-5.95-3.42-8.29-8.71-9.09-4.24-.64-8.45-1.5-12.68-2.23-2.19-.38-3.47.18-3.75,2.79-.5,4.8-1.27,9.57-2.15,14.32-.47,2.53.12,3.75,2.83,4,3.72.41,7.4,1.22,11.12,1.7,3.21.42,5.38-.79,6.31-4.15.29-1,1.54-1.81,2.34-2.71.5,1.18,1.54,2.43,1.4,3.53-.67,5.46-1.57,10.89-2.59,16.29-.19,1-1.3,1.81-2,2.72-.7-1-2.08-2-2-3,.48-5.07-2.55-6.57-6.69-7.24q-4.37-.7-8.72-1.56c-2.53-.49-4,0-4.34,3-.62,5.19-1.7,10.32-2.54,15.49-.54,3.35,0,5.57,4.29,5.84C1080.58,141.85,1085.18,143.07,1089.8,143.89Z" transform="translate(-699.76 -77.87)"/><path d="M1230.81,224.66c.19-10,3-16.26,9.86-19.79,9.41-4.85,19.07-9.21,28.63-13.78,1.33-.63,2.65-1.29,4-1.91,3.31-1.55,4.51-3.87,3.22-7.51-.34-1,.42-2.32.68-3.5,1,.67,2.5,1.11,3,2q4.81,9.94,9.18,20.1c.4.91-.35,2.32-.57,3.5-1-.63-2.58-1-3-1.94-1.65-3.52-4.27-4-7.32-2.54-11.36,5.38-22.65,10.89-34,16.37-5.18,2.51-6.45,7.11-5.71,12.18,1.43,9.85,10.34,19.54,23.16,13.87,9.56-4.23,19-8.68,28.55-13,3.57-1.61,6-3.61,3.72-8-.37-.72.49-2.08.79-3.15.9.57,2.24.92,2.63,1.73,2.56,5.31,5,10.69,7.26,16.14.39.92-.36,2.31-.58,3.49-.85-.61-2-1-2.48-1.86-1.87-3.61-4.89-3.59-7.94-2.42-4.75,1.82-9.36,4-14,6.07-5.28,2.32-10.49,4.79-15.83,6.94-12,4.85-22,1.54-28.27-9.91C1233.15,233,1231.89,227.6,1230.81,224.66Z" transform="translate(-699.76 -77.87)"/><path d="M1026.25,107.56c0-8-.11-13.39,0-18.76.11-4-1.37-6.35-5.63-6.72-.85-.08-1.61-1.21-2.42-1.86.86-.47,1.7-1.34,2.56-1.36q8.85-.19,17.7,0c.79,0,1.56,1,2.34,1.59-.67.66-1.32,1.85-2,1.89-5.09.32-6,3.83-6.14,7.83-.34,10.86-.31,21.73-.9,32.57s-7.39,17.89-18.26,19a48.3,48.3,0,0,1-14-.51c-10.83-2.12-16.76-10.55-16.64-22.34.11-9.92,0-19.85.13-29.77,0-4.09-.74-7.15-5.58-7.62-.92-.09-1.74-1.25-2.61-1.92,1-.6,2.06-1.7,3.09-1.71,7.37-.06,14.74.06,22.1.29.87,0,1.71,1.1,2.57,1.68-.81.71-1.59,2-2.42,2-4.81.21-6,3.12-6,7.25,0,11.39-.16,22.79.15,34.18.16,5.8,2.31,10.75,8.8,12.41,7.65,2,16.37-.06,19.78-5.3a19.19,19.19,0,0,0,2.64-8.23C1026.09,116.46,1026.11,110.67,1026.25,107.56Z" transform="translate(-699.76 -77.87)"/><path d="M777.8,184c.82,3.88,1.43,7.18,2.23,10.43.69,2.81,2.24,4.08,5.35,2.83,1.08-.43,2.55.12,3.84.23-.66,1-1.1,2.38-2,3.06q-5.79,4.32-11.88,8.24c-.75.48-2,.12-3.1.16.15-1,.28-1.93.46-2.89.5-2.64,1.85-5.43,1.39-7.89-3.4-18.18-7.2-36.28-10.75-54.43-.27-1.39.35-3,.56-4.44,1.46.29,3.17.17,4.35.91,13.5,8.46,26.91,17.06,40.37,25.58a50.77,50.77,0,0,0,8.68,4.92c1.93.73,4.36.1,6.57.18a18.68,18.68,0,0,1,2.82.54c-.34.89-.41,2.16-1,2.63-5.75,4.15-11.58,8.18-17.44,12.16-.51.34-1.94.28-2.06,0a3.25,3.25,0,0,1-.13-2.46c2.59-5,2.64-5-2.18-8.21a42.72,42.72,0,0,0-6.11-3.79,5,5,0,0,0-4,0c-4.87,3.09-9.58,6.42-14.24,9.8A7.22,7.22,0,0,0,777.8,184Zm-1.59-7,14.56-9.65L773.3,156.31l-1.06,1C773.48,163.48,774.73,169.66,776.21,177.05Z" transform="translate(-699.76 -77.87)"/><path d="M699.81,219.15c.24-7.63,3.51-14.79,9.45-20.7,2-2,3.62-3.66,1-6.36a2.59,2.59,0,0,1,0-2.49,2.7,2.7,0,0,1,2.4-.75c5.63,1.73,11.24,3.57,16.79,5.55.73.27,1.1,1.54,1.64,2.34-.9.56-1.75,1.46-2.73,1.63-3.28.57-6.74.43-9.89,1.38-11.91,3.62-16.65,18.41-8.71,28,9,10.86,20.87,15.78,35,14.11,9.65-1.14,17.56-14.41,14.72-24.17-.93-3.19-2.65-6.14-3.76-9.29-.37-1,0-2.34.08-3.53,1.07.48,2.5.66,3.16,1.47,7.55,9.15,8,20.86,2.21,32-8.16,15.72-26.66,19.07-41,12.22C707,244.28,699,232.21,699.81,219.15Z" transform="translate(-699.76 -77.87)"/><path d="M1132.72,95.11c6.06,2,12.14,4,18.2,6,7,2.33,13.94,4.76,20.93,7.09,4.62,1.54,4.94,2.14,3.42,7-.72,2.3-1.28,4.66-2.13,6.91-.27.71-1.23,1.16-1.87,1.73a9.68,9.68,0,0,1-1.57-2c-1.23-3-1.47-7.39-3.66-8.78-4.52-2.87-10-4.25-15.21-6-.68-.22-2.46,1-2.8,2-1.86,5-3.51,10.13-5,15.28a3.17,3.17,0,0,0,1.09,2.85,80,80,0,0,0,8.78,2.79c3,.81,4.69-.94,6.43-3,.78-.94,2.25-1.3,3.41-1.93.14,1.2.68,2.53.35,3.58-1.68,5.23-3.54,10.4-5.47,15.53-.26.68-1.29,1.07-2,1.59-.47-.72-1.47-1.53-1.35-2.13,1.42-7.3-3.77-8.36-8.85-9.77-5.46-1.51-5.49-1.65-7.26,3.64-1.44,4.32-2.53,8.76-4.08,13-1.43,3.91-.39,6.39,3.36,8.1.84.38,1.27,1.68,1.89,2.56-1.08.29-2.33,1.08-3.22.79-7.13-2.31-14.21-4.78-21.26-7.33-.64-.23-1-1.34-1.44-2,.88-.36,1.77-1.07,2.62-1,5.84.37,6.62-.29,8.44-6q5.82-18.18,12-36.26c1.83-5.4,1.53-6.8-3-10.53a10.35,10.35,0,0,1-1.7-2.63Z" transform="translate(-699.76 -77.87)"/><path d="M1176.16,967c-11.45,11.6-24.89,7.94-29.43-7-3.75-12.3.56-23.26,11.23-28.07a14.93,14.93,0,0,1,6.58-1.37c3,.15,5.32-.2,7.6-2.45s3.28.31,3.77,2c2.38,8.1,4.59,16.24,6.85,24.37,1.91,6.83,3.74,13.69,5.75,20.49.84,2.84,1.8,5.82,6,4.93.52-.1,1.88,1.06,1.81,1.39-.24,1-.79,2.55-1.57,2.79-5.23,1.67-10.53,3.12-15.86,4.46a2.81,2.81,0,0,1-2.49-1.11,2.85,2.85,0,0,1,.91-2.63c3.74-1.5,3-4.36,2.27-7.07C1178.62,974.29,1177.42,970.94,1176.16,967Zm-22.07-20-1,.4c1.89,4.63,3.37,9.48,5.77,13.82,2,3.56,7.47,4.38,11.16,2.7,4.3-1.94,3.77-5.34,2.83-8.87-1.16-4.4-2.32-8.8-3.63-13.15s-5.44-6.36-9.5-4.71C1156.14,938.62,1153.85,942.62,1154.09,947Z" transform="translate(-699.76 -77.87)"/><path d="M968.15,952.28a63.55,63.55,0,0,1,6.35-3.17c6.65-2.47,13,.64,14,7.6.85,6,.39,12.29.43,18.44,0,2.27-.18,4.55-.36,6.82-.2,2.47-.09,4.57,3.14,5a2.82,2.82,0,0,1,1.65,2.2c0,.6-1.29,1.71-2,1.72-5.62,0-11.24-.09-16.85-.37-.76,0-2.13-1.31-2.06-1.86.12-.95,1.14-2.51,1.82-2.54,4.24-.14,4.43-2.8,4.48-6,.09-6.16.58-12.31.69-18.47.07-4.49-2.6-6.4-6.79-4.83-3.29,1.23-6.08,2.74-5.87,7.38.25,5.59-.46,11.24-.84,16.86-.16,2.44.41,4.12,3.14,4.72.87.2,1.52,1.42,2.27,2.17-.94.71-1.88,2.06-2.81,2.05-5.35-.06-10.7-.38-16-.78-.68-.06-1.86-1.12-1.83-1.64.07-.84.87-2.27,1.49-2.34,3.55-.41,3.75-2.9,3.89-5.55.33-6.56.72-13.12,1-19.69.08-2,0-4.07-3-4.2-.75,0-2.07-1.32-2-1.92a3.68,3.68,0,0,1,1.8-2.64c3.34-1.36,6.78-2.5,10.24-3.53C968.05,946.45,967,950.27,968.15,952.28Z" transform="translate(-699.76 -77.87)"/><path d="M1226.62,946.55c-3,5.65-6.3,10.14-12.95,10.05-4.54-.05-7.44-2.67-9.46-6.4-3.35-6.23-6.67-12.47-9.85-18.78-1.26-2.51-2.7-3.8-5.69-2.9-.8.25-2-.67-2.94-1.06.48-1,1-2,1.45-3,0-.1.24-.12.35-.19,10.26-6.37,11-6.21,16.27,4.36,2.42,4.79,4.59,9.7,7,14.45,2.18,4.23,5.06,5.34,8.36,3.55a8,8,0,0,0,3.08-10c-2.37-4.66-4.72-9.32-7-14-1.37-2.85-2.92-5.11-6.7-4.27-.73.16-2.34-.72-2.41-1.27a3.19,3.19,0,0,1,1.28-2.61c3-1.67,6.24-3.09,9.41-4.54,2.6-1.2,3.28.93,4.1,2.56q5.34,10.59,10.58,21.23c1.33,2.69,2.3,5.83,6.41,3.44a2.17,2.17,0,0,1,2,.7,2.85,2.85,0,0,1-.35,2.38c-2.31,2.78-4.78,5.43-7.19,8.14C1229.64,951.48,1228.4,948.4,1226.62,946.55Z" transform="translate(-699.76 -77.87)"/><path d="M845,952.72c4-4.73,8.13-9.42,12-14.26.49-.62,0-2.08-.14-3.14s-.31-2.17-.48-3.25a8.91,8.91,0,0,1,3-.4,67,67,0,0,1,8.49,2.45c.9.34,2.06,1.65,2,2.44s-1.27,1.8-2.16,2.48c-2.46,1.89-5.46,3.28-7.47,5.55-9.06,10.23-17.67,20.85-26.82,31-3.63,4-8.4,6.64-14.34,5.74-3-.45-5.31-1.89-5.7-4.8-.25-1.88.36-5.21,1.45-5.64,2.17-.84,5.47-1,7.37.14,3.78,2.26,5.82,1.09,8.65-1.56,4-3.76,4.71-7.7,3.74-12.94-1.31-7.1-1.38-14.42-2.52-21.57-.5-3.14-2.39-6.05-3.49-9.12a3.74,3.74,0,0,1,0-2.9,3.09,3.09,0,0,1,2.76-.77c4.86,1.52,9.67,3.19,14.44,5,.66.25,1.54,1.51,1.39,2-.26.82-1.23,1.47-2,2.07-1,.79-3.12,1.5-3.09,2.17.31,6.33,1,12.65,1.53,19Z" transform="translate(-699.76 -77.87)"/><path d="M1035.61,983.14l4.39-2.42c1.48,4.08.46,6.37-3.92,9.28-3.78,2.51-7.19,2-10.94-1.39-3.5,1.18-6.65,2.95-9.92,3.2-8.23.61-13.61-7-10.23-14.55a20.91,20.91,0,0,1,6.64-7.68c2.85-2.13,6.35-3.47,9.71-4.77,3.08-1.19,3.58-3.21,2.89-6a4.69,4.69,0,0,0-5.21-3.93c-3.13.11-4,2.36-4.19,4.92s-.71,5.07-3.51,5.6c-1.41.27-4.06-.44-4.42-1.37-.84-2.16-1.38-5-.67-7.07,1.84-5.45,8.76-8.51,16.16-7.86,8.55.76,11.86,4.31,12.06,12.87q.22,9.84.55,19.69A6.35,6.35,0,0,0,1035.61,983.14Zm-11.68-13.82c-3,2-6.09,3.54-8.49,5.84s-1.85,5.27.17,7.63,4.47,1.64,6.77,0C1025.54,980.54,1026.28,975.7,1023.93,969.32Z" transform="translate(-699.76 -77.87)"/><path d="M1246.3,907.47c6.9,4.71,14.09,4,18.56-1.37,2.83-3.41,3-7.43.61-11.51-.61-1.06-.49-2.54-.71-3.83,1.35.37,3.09.32,4,1.17,5.43,5.14,7.18,13.92,4.13,19.45-4.17,7.55-11.88,11-20.42,9.23-10.49-2.22-18.44-11-19.12-21.06-.79-11.73,11-20.65,21.83-16.46,4,1.55,4.44,2.83,2.19,6.48Zm-4.42-2.81c2.29-3.59,4.44-6.74,6.25-10.08.25-.45-1.05-2.45-1.92-2.69a5.77,5.77,0,0,0-7,3.28C1237.68,898.39,1238.4,901.59,1241.88,904.66Z" transform="translate(-699.76 -77.87)"/><path d="M1051.89,981.94c-.12-1.34-.55-2.74-.27-4s1.23-2.34,1.89-3.51c.86.86,1.75,1.68,2.57,2.57,2.18,2.39,4,5.26,6.58,7.1,2.76,2,7,.65,8-1.92,1.22-3.3-.57-5.37-3.34-6.79-3.69-1.89-7.48-3.59-11.13-5.57-5.21-2.84-7.28-8.19-5.65-14a12.52,12.52,0,0,1,11.7-8.8c3.38-.07,6.76-.45,10.12-.38a3.15,3.15,0,0,1,2.31,2c.5,3.71.72,7.46.85,11.21a2.45,2.45,0,0,1-1.38,1.93,2.93,2.93,0,0,1-2.34-1c-.93-1.29-1.41-2.89-2.27-4.24-1.86-2.9-4.32-5-8-3.68-1.45.52-3.52,1.86-3.62,3a5.77,5.77,0,0,0,2.29,4.55,132.25,132.25,0,0,0,11.88,5.86c6,2.83,8.46,7.08,7.57,13.11-.77,5.22-5.94,10.38-11.5,10.83a119.71,119.71,0,0,1-13.92,0c-.66,0-1.64-1.3-1.81-2.12a49.73,49.73,0,0,1-.56-6Z" transform="translate(-699.76 -77.87)"/><path d="M1103.07,985.89c-4.12,0-7.49-3.37-8.38-8.84-1.16-7.15-2.22-14.31-3.06-21.5-.31-2.67-.78-4.17-4-4-2.75.14-3.74-2.06-1.69-3.88a29.3,29.3,0,0,0,8.48-13.37c.25-.78,1.54-1.81,2.21-1.72s1.39,1.32,1.87,2.17a5.47,5.47,0,0,1,.32,2c.82,6.55.83,6.45,7.18,7.08,1,.1,2.62,1.51,2.67,2.38a3.86,3.86,0,0,1-2.15,3c-6,1.83-6,1.73-5.15,8,.78,5.44,1.43,10.91,2.4,16.31a5.89,5.89,0,0,0,2.39,3.74c.66.37,2.34-1.1,3.57-1.72,1-.49,2-1,3-1.43.19,1.19.76,2.47.5,3.56A11.19,11.19,0,0,1,1103.07,985.89Z" transform="translate(-699.76 -77.87)"/><path d="M1117.67,949.79c-.84-.49-2.26-.88-2.38-1.5a3.65,3.65,0,0,1,1-3,95.65,95.65,0,0,1,9.09-5.92c2.78-1.6,4,.24,4.44,2.65,1.3,6.85,2.49,13.72,3.74,20.58.46,2.5,1,5,1.46,7.48.46,2.72,1.34,4.83,4.65,5.08.73,0,1.71,1.51,1.88,2.44.09.49-1.23,1.67-2,1.84-5,1-10,2-15,2.69-1,.13-2.13-1-3.2-1.59.63-.89,1.09-2.3,1.91-2.55,2.89-.91,2.83-3.22,2.47-5.23q-1.89-10.68-4.34-21.26c-.25-1.07-1.76-1.85-2.68-2.76C1118.29,949.05,1118,949.42,1117.67,949.79Z" transform="translate(-699.76 -77.87)"/><path d="M1121.53,919.74a5.73,5.73,0,0,1,5.58,5.68,5.31,5.31,0,0,1-5.42,5.26,5.38,5.38,0,0,1-5.55-5.53A5.51,5.51,0,0,1,1121.53,919.74Z" transform="translate(-699.76 -77.87)"/></g></svg>